<?xml version="1.0" encoding="UTF-8"?>
<svg version="1.1" xmlns="http://www.w3.org/2000/svg" width="500" height="500">
<path d="M0 0 C3.20861774 0.13995514 6.41681288 0.28802257 9.625 0.4375 C10.52863281 0.47681641 11.43226563 0.51613281 12.36328125 0.55664062 C16.98216146 0.77578458 21.45153636 1.1008851 26 2 C26.23242188 4.29174805 26.23242188 4.29174805 26 7 C24.43945312 8.76098633 24.43945312 8.76098633 22.28125 10.33203125 C21.51425781 10.90244141 20.74726563 11.47285156 19.95703125 12.06054688 C19.14621094 12.63869141 18.33539063 13.21683594 17.5 13.8125 C16.68917969 14.40998047 15.87835938 15.00746094 15.04296875 15.62304688 C13.03872104 17.09675843 11.02472892 18.55462483 9 20 C9.92941406 19.855625 10.85882813 19.71125 11.81640625 19.5625 C13.05261719 19.376875 14.28882813 19.19125 15.5625 19 C16.78066406 18.814375 17.99882812 18.62875 19.25390625 18.4375 C22.87627848 18.01444923 26.35712046 17.92498575 30 18 C30 19.32 30 20.64 30 22 C28.79601562 22.20496094 27.59203125 22.40992188 26.3515625 22.62109375 C24.77601308 22.89306359 23.20049379 23.16520807 21.625 23.4375 C20.8309375 23.57220703 20.036875 23.70691406 19.21875 23.84570312 C14.98605017 24.51417589 14.98605017 24.51417589 11 26 C11.33 29.63 11.66 33.26 12 37 C10.68 37 9.36 37 8 37 C7.01 30.07 6.02 23.14 5 16 C6.32 15.01 7.64 14.02 9 13 C8.67 10.69 8.34 8.38 8 6 C5.69 5.67 3.38 5.34 1 5 C0.67 3.35 0.34 1.7 0 0 Z M12 5 C12.33 6.65 12.66 8.3 13 10 C16.65316671 8.75023244 17.78065836 8.32901247 20 5 C17.36 5 14.72 5 12 5 Z " fill="#434343" transform="translate(386,196)"/>
<path d="M0 0 C2.70567626 1.82339052 4.53728718 3.07457436 6 6 C6.039992 7.99960012 6.04346799 10.00047242 6 12 C4.125 11.8125 4.125 11.8125 2 11 C1.71125 10.195625 1.4225 9.39125 1.125 8.5625 C0.20370601 5.73025628 0.20370601 5.73025628 -2.8125 4.5625 C-6.40924931 3.92777953 -7.75165473 4.53852038 -11 6 C-11.27599507 7.76696843 -11.51996915 9.53896215 -11.75 11.3125 C-11.88921875 12.29863281 -12.0284375 13.28476563 -12.171875 14.30078125 C-12.28308407 17.10334774 -12.28308407 17.10334774 -10.21875 18.875 C-7.17911425 20.41622376 -5.23280116 19.80820029 -2 19 C-1.67 18.01 -1.34 17.02 -1 16 C-2.98 15.34 -4.96 14.68 -7 14 C-6.67 13.01 -6.34 12.02 -6 11 C-1.87248551 11.60698743 1.3321148 13.03810791 5 15 C3.35 18.96 1.7 22.92 0 27 C-0.99 26.67 -1.98 26.34 -3 26 C-3 25.34 -3 24.68 -3 24 C-4.8253125 24.12375 -4.8253125 24.12375 -6.6875 24.25 C-10.0726174 24.26200396 -10.93868234 24.03913893 -13.9375 22.125 C-16.72823662 19.2496956 -17.17030632 17.65499049 -17.25 13.75 C-17.17379682 9.43412891 -16.58269426 6.58244688 -14 3 C-9.48807736 -0.84737589 -5.81417452 -1.72271838 0 0 Z " fill="#4A4A4A" transform="translate(317,93)"/>
<path d="M0 0 C2.4319561 1.89152141 3.45217542 3.47125347 4.6875 6.3125 C4.92488786 9.03488421 4.82694193 11.570142 4.6875 14.3125 C2.7075 15.3025 2.7075 15.3025 0.6875 16.3125 C-0.03363071 13.73703318 -0.45127984 11.28899864 -0.8125 8.625 C-0.95287516 5.47424185 -0.95287516 5.47424185 -2.3125 4.3125 C-6.35815239 3.92349496 -8.64337428 3.9197523 -12.1875 6 C-14.58527646 8.60934498 -15.3125 9.77919478 -15.3125 13.3125 C-14.33772193 16.18752253 -14.33772193 16.18752253 -12.3125 18.3125 C-9.68555578 18.73030879 -9.68555578 18.73030879 -7.3125 18.3125 C-7.3125 15.6659665 -8.29389634 13.7316837 -9.3125 11.3125 C-7.9925 11.3125 -6.6725 11.3125 -5.3125 11.3125 C-3.828125 12.84375 -3.828125 12.84375 -2.5625 14.8125 C-2.13453125 15.4621875 -1.7065625 16.111875 -1.265625 16.78125 C-0.95109375 17.2865625 -0.6365625 17.791875 -0.3125 18.3125 C-6.14348592 24.30545775 -6.14348592 24.30545775 -9.3125 26.3125 C-10.3025 26.3125 -11.2925 26.3125 -12.3125 26.3125 C-12.35375 25.755625 -12.395 25.19875 -12.4375 24.625 C-13.20401522 21.97519659 -13.20401522 21.97519659 -16.3125 20.0625 C-18.93039956 18.01864588 -19.83667859 16.60430446 -20.375 13.3125 C-20.56970041 9.47618074 -19.81492518 7.31541021 -17.3125 4.3125 C-11.90300303 -0.43730222 -7.07886315 -2.10452688 0 0 Z " fill="#424242" transform="translate(385.3125,146.6875)"/>
<path d="M0 0 C0.99 0 1.98 0 3 0 C4.17430074 3.2681432 5.33811256 6.53992515 6.5 9.8125 C6.83386719 10.74126953 7.16773438 11.67003906 7.51171875 12.62695312 C7.82753906 13.51962891 8.14335937 14.41230469 8.46875 15.33203125 C8.76201172 16.15421143 9.05527344 16.9763916 9.35742188 17.82348633 C10 20 10 20 10 23 C8.21582031 23.64428711 8.21582031 23.64428711 6 24 C4.26074219 23.10375977 4.26074219 23.10375977 2.546875 21.69140625 C1.928125 21.19189453 1.309375 20.69238281 0.671875 20.17773438 C0.03765625 19.64470703 -0.5965625 19.11167969 -1.25 18.5625 C-1.8996875 18.03333984 -2.549375 17.50417969 -3.21875 16.95898438 C-4.8217887 15.65062191 -6.41214592 14.32674973 -8 13 C-7.566875 14.37285156 -7.566875 14.37285156 -7.125 15.7734375 C-6.75375 16.96195312 -6.3825 18.15046875 -6 19.375 C-5.62875 20.55835938 -5.2575 21.74171875 -4.875 22.9609375 C-4 26 -4 26 -4 28 C-5.32 28.33 -6.64 28.66 -8 29 C-10.64 21.74 -13.28 14.48 -16 7 C-15.34 6.34 -14.68 5.68 -14 5 C-9.1236323 5.12810073 -6.17275549 7.98378707 -2.6875 11.0625 C-2.13771484 11.53494141 -1.58792969 12.00738281 -1.02148438 12.49414062 C0.3262696 13.654381 1.66415117 14.82607224 3 16 C2.69964844 15.18015625 2.39929688 14.3603125 2.08984375 13.515625 C1.70957031 12.43796875 1.32929688 11.3603125 0.9375 10.25 C0.55464844 9.18265625 0.17179687 8.1153125 -0.22265625 7.015625 C-0.98010011 4.07719958 -1.07151741 2.77651052 0 0 Z " fill="#494949" transform="translate(306,383)"/>
<path d="M0 0 C2.3125 1.75 2.3125 1.75 4 4 C4 5.32 4 6.64 4 8 C5.175625 8.37125 5.175625 8.37125 6.375 8.75 C9.32317108 10.15389099 9.9024777 11.00675737 11 14 C11.99 14 12.98 14 14 14 C13.67 14.99 13.34 15.98 13 17 C12.01 17.33 11.02 17.66 10 18 C7.8125 16.6875 7.8125 16.6875 6 15 C6 14.34 6 13.68 6 13 C2.17902761 13.53069061 -0.06171403 14.49701566 -3 17 C-1.79618552 19.49361571 -0.54571278 21.68143083 1 24 C1 24.99 1 25.98 1 27 C0.01 27.33 -0.98 27.66 -2 28 C-3.9666642 25.77772959 -5.92327449 23.54782865 -7.875 21.3125 C-8.70837891 20.37374023 -8.70837891 20.37374023 -9.55859375 19.41601562 C-12.44066261 16.09990025 -14.70477166 13.28736977 -16 9 C-14.54405245 7.68485396 -13.08516421 6.37296283 -11.625 5.0625 C-10.81289062 4.33160156 -10.00078125 3.60070312 -9.1640625 2.84765625 C-6.01462122 0.15869285 -4.12987874 -0.49165223 0 0 Z M-4 4 C-5.8948204 4.97229848 -5.8948204 4.97229848 -7.6875 6.4375 C-8.31011719 6.91058594 -8.93273437 7.38367188 -9.57421875 7.87109375 C-10.04472656 8.24363281 -10.51523438 8.61617187 -11 9 C-9.71711243 11.55503957 -9.71711243 11.55503957 -8 14 C-4.79478405 14.3166189 -4.79478405 14.3166189 -2.25 11.75 C0.23746417 9.30196061 0.23746417 9.30196061 0 6.75 C-0.94279946 4.64862526 -0.94279946 4.64862526 -4 4 Z " fill="#484848" transform="translate(152,116)"/>
<path d="M0 0 C1.65 0 3.3 0 5 0 C5.83887056 2.43572059 6.67126529 4.87333217 7.5 7.3125 C7.73847656 8.00279297 7.97695313 8.69308594 8.22265625 9.40429688 C9.23208263 12.38931489 10 14.82658914 10 18 C10.66 18 11.32 18 12 18 C12.12375 16.824375 12.2475 15.64875 12.375 14.4375 C12.86435935 10.45879574 13.8055205 6.82233441 15 3 C16.32 3.33 17.64 3.66 19 4 C17.69951304 11.77232205 15.99548103 19.37726245 14 27 C12.35 27 10.7 27 9 27 C7.02 21.06 5.04 15.12 3 9 C1.68 13.62 0.36 18.24 -1 23 C-2.32 23 -3.64 23 -5 23 C-3.83675515 15.15836122 -2.2452987 7.60407828 0 0 Z " fill="#4D4D4D" transform="translate(282,84)"/>
<path d="M0 0 C3.375 1.8125 3.375 1.8125 6 4 C6.54140625 4.44988281 7.0828125 4.89976562 7.640625 5.36328125 C9.84087668 8.01243486 9.41036105 10.46739976 9.28125 13.78125 C8.88568089 16.90185075 8.08344828 18.63875861 6 21 C2.57068894 23.3925426 0.04410079 24.24691856 -4.0625 23.875 C-8.73566383 23.03668435 -11.79494559 21.49592961 -14.8125 17.75 C-16.33107326 14.23330403 -16.40718483 11.80039173 -16 8 C-12.61954745 0.56300439 -7.82097845 -1.24918406 0 0 Z M-12 9 C-12.91666667 11.5 -12.91666667 11.5 -12 14 C-7.69109323 18.38430056 -7.69109323 18.38430056 -2 20 C1.7810303 18.91970563 2.76204175 18.35693737 5 15 C5.66721536 12.08559301 5.66721536 12.08559301 5 9 C2.11440429 5.83958565 0.15546616 4.23580942 -4.0625 3.375 C-8.06138253 4.22582607 -9.55826977 5.76829822 -12 9 Z " fill="#444444" transform="translate(404,283)"/>
<path d="M0 0 C11.385 1.485 11.385 1.485 23 3 C24.34643142 8.38572567 23.47764735 12.69974321 22 18 C20.3125 20.75 20.3125 20.75 18 22 C14.37542227 21.80923275 11.43470709 21.14490236 8 20 C6.27204648 19.93197033 4.54164635 19.91504355 2.8125 19.9375 C1.91144531 19.94652344 1.01039063 19.95554687 0.08203125 19.96484375 C-0.94857422 19.98224609 -0.94857422 19.98224609 -2 20 C-2 18.35 -2 16.7 -2 15 C0.97 15 3.94 15 7 15 C7.33 12.03 7.66 9.06 8 6 C5.36 5.67 2.72 5.34 0 5 C0 3.35 0 1.7 0 0 Z M13 6 C12.67 9.3 12.34 12.6 12 16 C13.98 16.99 13.98 16.99 16 18 C18.0343459 16.58480285 18.90410393 15.45017877 19.421875 13.01953125 C19.66273952 11.01823046 19.83532741 9.0090056 20 7 C17.69 6.67 15.38 6.34 13 6 Z " fill="#464646" transform="translate(395,260)"/>
<path d="M0 0 C1.32 0.33 2.64 0.66 4 1 C3.67 4.63 3.34 8.26 3 12 C5.97 12.99 8.94 13.98 12 15 C12.12375 14.071875 12.2475 13.14375 12.375 12.1875 C13 9 13 9 15 6 C15.99 6.33 16.98 6.66 18 7 C17.35983027 12.13756468 15.80299667 16.58790181 13.9375 21.375 C13.65583984 22.11105469 13.37417969 22.84710938 13.08398438 23.60546875 C12.39433382 25.4055736 11.69786068 27.2030621 11 29 C6.90637009 28.51490238 3.36517193 28.02648168 -0.3125 26.125 C-0.96863281 25.79757812 -1.62476563 25.47015625 -2.30078125 25.1328125 C-4 24 -4 24 -6 21 C-5.66481994 15.63711911 -5.66481994 15.63711911 -3.5 13.5625 C-1.12538382 11.08894148 -1.34407822 8.32608945 -1 5 C-0.68033861 3.33065717 -0.35268934 1.6626783 0 0 Z M0 16 C-0.66 17.32 -1.32 18.64 -2 20 C2.63039069 23.33949284 2.63039069 23.33949284 8 25 C8.66 22.69 9.32 20.38 10 18 C6.49223216 16.39644899 3.85645121 15.77963136 0 16 Z " fill="#464646" transform="translate(189,381)"/>
<path d="M0 0 C3.2607935 2.14262868 6.23692953 4.47385906 8 8 C8.39771327 12.77255923 8.47453429 15.08482672 6.25 19.375 C3.07208318 23.08256962 1.49839017 23.80209941 -3.3125 24.4375 C-8.02668815 23.87818954 -10.70432405 22.38061605 -14 19 C-16.11045147 15.37266154 -17.02137735 13.06886749 -16.9375 8.875 C-15.61252217 4.81173465 -13.59643253 2.25433985 -10.25 -0.375 C-6.6637192 -1.37118911 -3.4892534 -1.1349802 0 0 Z M-8.8125 4.3125 C-11.84631852 6.45923874 -11.84631852 6.45923874 -12.5 10.1875 C-11.97148238 14.21744684 -11.68030226 14.8615329 -8.875 17.5 C-6.13679395 19.57859771 -5.29916932 19.99424674 -1.75 20.0625 C1.73534688 18.76025422 1.73534688 18.76025422 4 16 C4.56819707 12.26613356 4.30549314 10.51698838 2.375 7.25 C-1.24066356 3.82463452 -4.08325263 2.10551789 -8.8125 4.3125 Z " fill="#454545" transform="translate(137,134)"/>
<path d="M0 0 C3.35821011 2.87846581 4.87102352 5.68668094 5.5078125 10.08984375 C5.70788049 14.09787249 5.52527893 16.30801393 3.4375 19.8125 C0.75331879 22.27299944 -1.30672775 23.76994612 -4.99609375 24.02734375 C-9.16852232 23.62962526 -11.34175598 23.23556989 -14.75 20.625 C-18.11896259 16.13304988 -19.50510383 12.53126458 -18.8125 6.875 C-17.19342222 3.86814126 -15.75672632 1.6168921 -13.0625 -0.5 C-8.43949199 -1.78416889 -4.39955974 -1.7598239 0 0 Z M-13.3125 5 C-15.043783 7.77782902 -15.043783 7.77782902 -14.8125 10.875 C-13.64666022 14.37251935 -12.49529863 16.33721751 -9.8125 18.875 C-6.03667812 20.24072281 -4.52086258 20.20657397 -0.875 18.5 C1.43197625 15.56384841 1.49720591 14.94182808 1.25 11.375 C0.72519942 8.4524867 0.17497604 6.85525069 -1.4375 4.3125 C-5.82005575 1.65990047 -9.39480683 1.6699608 -13.3125 5 Z " fill="#494949" transform="translate(331.8125,376.125)"/>
<path d="M0 0 C5.72992618 0.50342802 9.93964482 2.83132463 14.875 5.5625 C15.65875 5.98724609 16.4425 6.41199219 17.25 6.84960938 C19.17100387 7.89210538 21.0873249 8.94232445 23 10 C22.07248802 11.9630836 21.13263547 13.92034027 20.1875 15.875 C19.66542969 16.96554687 19.14335937 18.05609375 18.60546875 19.1796875 C17 22 17 22 14 24 C8.39123471 24.45973486 4.82714671 24.18152851 0 21 C-2.90574267 18.24719116 -3.88902636 16.72132866 -4.5 12.75 C-3.86743235 8.00574259 -2.15292492 4.23857093 0 0 Z M2 5 C0.42062996 8.45487196 -0.68200852 11.20023823 0 15 C2.70745912 17.95359177 4.68084759 18.91601252 8.5625 19.9375 C11.91051183 20.24188143 11.91051183 20.24188143 14.375 18.9375 C16.50213134 16.40130494 16.55315524 14.22867242 17 11 C14.87717331 9.99539469 12.75166979 8.99644398 10.625 8 C9.44164062 7.443125 8.25828125 6.88625 7.0390625 6.3125 C4.24571425 4.86783959 4.24571425 4.86783959 2 5 Z " fill="#4A4A4A" transform="translate(384,304)"/>
<path d="M0 0 C2.31968839 3.63081661 2.2626589 6.9276017 1.61328125 11.06640625 C0.59215884 14.28586864 -1.40276742 15.95931726 -4 18 C-8.74898755 19.58299585 -12.56459472 19.55207896 -17.25 17.75 C-20.8110681 15.48386576 -22.41823758 13.65578535 -23.8125 9.6875 C-24.07034074 5.99178274 -23.37419492 3.43548731 -22 0 C-15.18407446 -6.81592554 -7.32335037 -6.13117705 0 0 Z M-19 3 C-20.17110449 5.8596006 -20.17110449 5.8596006 -20 9 C-17.60206676 12.26990897 -15.85118018 13.71627327 -12 15 C-8.37396827 15 -6.83935889 14.20839025 -4 12 C-1.69739241 9.18401813 -1.69739241 9.18401813 -2.125 6 C-2.78669267 3.02251505 -2.78669267 3.02251505 -4.5 1.125 C-9.50159447 -1.12571751 -15.41166514 -1.62448018 -19 3 Z " fill="#464646" transform="translate(106,221)"/>
<path d="M0 0 C3.56557158 0.57458438 5.21099696 1.85355648 7.6875 4.4375 C8.28949219 5.05496094 8.89148438 5.67242187 9.51171875 6.30859375 C11.49211154 8.55927637 11.9704242 9.73973298 12.3125 12.75 C11.82550734 17.81472369 8.8947709 21.78258056 5 25 C1.17061697 26.27646101 -0.95509669 26.58716338 -5 26 C-8.286976 23.61184733 -11.15304047 20.89214936 -14 18 C-13.43653975 14.2712189 -11.96719542 12.66854007 -9.25 10.125 C-5.899415 6.9069921 -2.90030248 3.6253781 0 0 Z M-0.62109375 6.57421875 C-3.76103948 10.22735992 -6.72665989 13.72077156 -9 18 C-6.08508727 20.91491273 -4.68884474 21.9753984 -0.5 22.125 C4.2287651 20.60503979 5.43843171 19.24259748 8 15 C8.07678193 11.16090341 7.48504814 9.59457514 5.0625 6.625 C2.47823978 4.58891619 1.78175627 4.24084873 -0.62109375 6.57421875 Z " fill="#484848" transform="translate(356,119)"/>
<path d="M0 0 C3.07857357 2.61212303 3.92743045 4.7662859 4.4765625 8.765625 C4.54617187 9.83296875 4.61578125 10.9003125 4.6875 12 C4.76226562 13.07765625 4.83703125 14.1553125 4.9140625 15.265625 C4.98753906 16.49539063 4.98753906 16.49539063 5.0625 17.75 C0.17095663 18.95516286 -4.74025122 19.08461434 -9.75 19.3125 C-10.63365234 19.35568359 -11.51730469 19.39886719 -12.42773438 19.44335938 C-14.59749623 19.54891536 -16.7674791 19.64991071 -18.9375 19.75 C-19.95452117 16.6989365 -20.10332083 14.50800939 -20.125 11.3125 C-20.13917969 10.36503906 -20.15335937 9.41757812 -20.16796875 8.44140625 C-19.92916597 5.65267553 -19.45670735 4.08048475 -17.9375 1.75 C-12.3531302 -2.06371596 -6.18582405 -2.63226555 0 0 Z M-15.9375 6.75 C-16.00898199 8.10243917 -16.02149454 9.45834367 -16 10.8125 C-15.979375 12.111875 -15.95875 13.41125 -15.9375 14.75 C-13.66673158 14.77699725 -11.39587179 14.79639453 -9.125 14.8125 C-7.22814453 14.82990234 -7.22814453 14.82990234 -5.29296875 14.84765625 C-1.94144763 14.91159116 -1.94144763 14.91159116 1.0625 13.75 C0.92208864 10.89496903 0.80035867 8.48061565 0.0625 5.75 C-2.45887179 3.50878063 -4.1283982 2.87136527 -7.4375 2.375 C-10.82472668 2.883084 -13.50275363 4.31525363 -15.9375 6.75 Z " fill="#5B5B5B" transform="translate(101.9375,251.25)"/>
<path d="M0 0 C4.04283275 0.74256112 5.47204987 2.45395984 8.0625 5.5625 C9.64762383 8.73274765 9.48622144 12.10917028 9.0625 15.5625 C7.5625 17.5625 7.5625 17.5625 6.0625 18.5625 C5.0725 18.2325 4.0825 17.9025 3.0625 17.5625 C3.63834432 15.17685923 4.28477595 12.89567216 5.0625 10.5625 C3.69000037 7.88573453 3.69000037 7.88573453 2.0625 5.5625 C0.7425 5.8925 -0.5775 6.2225 -1.9375 6.5625 C-1.7725 7.3875 -1.6075 8.2125 -1.4375 9.0625 C-0.86106478 13.09754654 -0.60355917 16.48842186 -0.9375 20.5625 C-2.5625 22.625 -2.5625 22.625 -4.9375 23.5625 C-8.79107453 23.5625 -10.39991799 23.05649428 -13.25 20.4375 C-15.27250505 16.99175066 -15.86494108 14.55324042 -15.9375 10.5625 C-14.5 8.125 -14.5 8.125 -12.9375 6.5625 C-11.9475 6.8925 -10.9575 7.2225 -9.9375 7.5625 C-10.26302083 9.54817708 -10.58854167 11.53385417 -10.9140625 13.51953125 C-11.13327848 15.88005824 -11.13327848 15.88005824 -8.9375 18.5625 C-7.9475 18.5625 -6.9575 18.5625 -5.9375 18.5625 C-6.05609375 17.59828125 -6.1746875 16.6340625 -6.296875 15.640625 C-6.42578125 14.37734375 -6.5546875 13.1140625 -6.6875 11.8125 C-6.82671875 10.55953125 -6.9659375 9.3065625 -7.109375 8.015625 C-6.9375 4.5625 -6.9375 4.5625 -5.13671875 2.14453125 C-2.9375 0.5625 -2.9375 0.5625 0 0 Z " fill="#3F3F3F" transform="translate(114.9375,310.4375)"/>
<path d="M0 0 C2.95782983 0.81698122 4.23231144 2.01147719 5.9375 4.53515625 C7.30592105 9.79831414 7.30592105 9.79831414 5.9375 12.53515625 C4.6175 12.20515625 3.2975 11.87515625 1.9375 11.53515625 C1.9375 9.55515625 1.9375 7.57515625 1.9375 5.53515625 C-0.3725 5.20515625 -2.6825 4.87515625 -5.0625 4.53515625 C-5.0625 6.18515625 -5.0625 7.83515625 -5.0625 9.53515625 C-4.464375 9.76203125 -3.86625 9.98890625 -3.25 10.22265625 C-0.36828765 11.95168366 0.60822428 13.45683353 1.9375 16.53515625 C1.8125 19.72265625 1.8125 19.72265625 0.9375 22.53515625 C-2.81706567 25.03820003 -4.60995934 24.98795699 -9.0625 24.53515625 C-11.67097629 23.03769764 -13.93278902 21.66486723 -16.0625 19.53515625 C-16.20365161 16.86456774 -16.10497107 14.21083387 -16.0625 11.53515625 C-14.7425 11.53515625 -13.4225 11.53515625 -12.0625 11.53515625 C-11.85625 12.64890625 -11.65 13.76265625 -11.4375 14.91015625 C-10.44621699 18.8011482 -10.44621699 18.8011482 -6.9375 19.97265625 C-5.98875 20.15828125 -5.04 20.34390625 -4.0625 20.53515625 C-3.7325 19.54515625 -3.4025 18.55515625 -3.0625 17.53515625 C-5.04238642 14.92673446 -7.24098645 12.59817827 -9.47265625 10.203125 C-11.0625 7.53515625 -11.0625 7.53515625 -10.49609375 4.3359375 C-7.94035734 -0.65714971 -5.27492901 -0.84360078 0 0 Z " fill="#464646" transform="translate(337.0625,103.46484375)"/>
<path d="M0 0 C2.9375 2.4375 2.9375 2.4375 5 5 C5.33 5.33 5.66 5.66 6 6 C6.37086093 11.8410596 6.37086093 11.8410596 6 14 C5.01 14.66 4.02 15.32 3 16 C1.56921707 13.58555381 0.98606 12.28577002 1.125 9.4375 C1.26046385 6.85840478 1.26046385 6.85840478 -0.8125 5.125 C-1.534375 4.75375 -2.25625 4.3825 -3 4 C-3.99 4.33 -4.98 4.66 -6 5 C-4.98974748 8.26389274 -3.95115966 11.08547059 -2.25 14.0625 C-1 17 -1 17 -1.6875 19.75 C-3 22 -3 22 -5 24 C-9.35907046 24.57572629 -11.29436646 24.52155523 -14.875 21.875 C-17.22219132 18.69938821 -17.91646505 16.92614277 -18 13 C-17.0625 10.625 -17.0625 10.625 -16 9 C-15.01 9.33 -14.02 9.66 -13 10 C-13.061875 10.928125 -13.12375 11.85625 -13.1875 12.8125 C-13.28058106 15.92823556 -13.28058106 15.92823556 -11.75 17.8125 C-9.83408198 19.11258722 -8.27029534 19.60856977 -6 20 C-6.3988167 16.61005808 -7.06650507 14.90528065 -9.0625 12.0625 C-11.24089979 8.61922291 -11.62098963 6.99207622 -11 3 C-8.79208022 -1.13984958 -4.14986743 -0.89792453 0 0 Z " fill="#343434" transform="translate(148,351)"/>
<path d="M0 0 C1.32 0 2.64 0 4 0 C4.07622858 3.96388638 3.9681648 7.1273408 3 11 C6.63 11.66 10.26 12.32 14 13 C14.33 9.37 14.66 5.74 15 2 C16.32 2.33 17.64 2.66 19 3 C18.48351265 10.78808563 17.55123466 18.34925042 16 26 C14.68 26 13.36 26 12 26 C12 23.03 12 20.06 12 17 C8.7 16.34 5.4 15.68 2 15 C1.67 17.97 1.34 20.94 1 24 C-0.32 24 -1.64 24 -3 24 C-2.45423097 15.89963866 -1.45852964 7.98651182 0 0 Z " fill="#464646" transform="translate(217,391)"/>
<path d="M0 0 C1.32 0 2.64 0 4 0 C4 2.97 4 5.94 4 9 C7.63 9 11.26 9 15 9 C15 6.03 15 3.06 15 0 C16.32 0 17.64 0 19 0 C19 7.92 19 15.84 19 24 C17.35 24 15.7 24 14 24 C14.33 20.37 14.66 16.74 15 13 C11.37 13 7.74 13 4 13 C4.020625 14.27875 4.04125 15.5575 4.0625 16.875 C4.125 20.75 4.125 20.75 3 23 C1.68 23 0.36 23 -1 23 C-0.67 15.41 -0.34 7.82 0 0 Z " fill="#4E4E4E" transform="translate(248,81)"/>
<path d="M0 0 C3.6381163 2.32401409 7.04681462 5.09362925 9 9 C9.37593152 13.98109259 9.1765161 17.05673864 6 21 C2.74327158 23.71394035 1.48043713 24.03938009 -2.8125 23.6875 C-4.3903125 23.3471875 -4.3903125 23.3471875 -6 23 C-6 22.01 -6 21.02 -6 20 C-3 19 -3 19 -0.4375 18.625 C2.34945764 18.19970033 2.34945764 18.19970033 4 15 C3.91635802 11.06882714 3.49572312 9.49572312 0.6875 6.6875 C-2.44750618 4.63219778 -2.44750618 4.63219778 -6 4 C-8.42182765 4.73070004 -8.42182765 4.73070004 -10 7 C-10.34293313 10.02745652 -10.22894198 12.9665188 -10 16 C-10.99 16.33 -11.98 16.66 -13 17 C-15.10900443 13.57286781 -15.47895471 10.99128926 -15 7 C-11.20634574 0.29787747 -7.58711671 -1.51742334 0 0 Z " fill="#3A3A3A" transform="translate(369,344)"/>
<path d="M0 0 C2.63016161 2.1727422 4.47336894 3.94673788 6 7 C6.0546875 9.05859375 6.0546875 9.05859375 5.875 11.4375 C5.83117187 12.21996094 5.78734375 13.00242187 5.7421875 13.80859375 C5 16 5 16 2.85546875 17.6796875 C-0.27076447 19.12519616 -3.19919729 19.95092501 -6.5625 20.6875 C-7.67753906 20.93886719 -8.79257813 21.19023437 -9.94140625 21.44921875 C-13 22 -13 22 -17 22 C-17 20.68 -17 19.36 -17 18 C-15.95199219 17.73445313 -14.90398437 17.46890625 -13.82421875 17.1953125 C-12.4452352 16.83884056 -11.06633316 16.48205321 -9.6875 16.125 C-8.99720703 15.95097656 -8.30691406 15.77695312 -7.59570312 15.59765625 C-4.28124438 14.73301484 -1.87721447 13.91814298 1 12 C1.41666667 9.5 1.41666667 9.5 1 7 C-0.74221497 4.78943817 -0.74221497 4.78943817 -2.8125 4.98828125 C-3.534375 5.09527344 -4.25625 5.20226562 -5 5.3125 C-5.79277344 5.42078125 -6.58554688 5.5290625 -7.40234375 5.640625 C-8.68818359 5.81851562 -8.68818359 5.81851562 -10 6 C-11.85335494 6.19536058 -13.70753477 6.38307235 -15.5625 6.5625 C-16.83287109 6.68818359 -16.83287109 6.68818359 -18.12890625 6.81640625 C-19.05509766 6.90728516 -19.05509766 6.90728516 -20 7 C-20 5.68 -20 4.36 -20 3 C-4.89539749 -0.81589958 -4.89539749 -0.81589958 0 0 Z " fill="#525252" transform="translate(104,273)"/>
<path d="M0 0 C3.89542341 0.69736437 6.6092916 2.9702094 9.65063477 5.38500977 C10.28227539 5.86196289 10.91391602 6.33891602 11.56469727 6.83032227 C13.10635183 7.99824239 14.63041072 9.18932793 16.15063477 10.38500977 C15.16063477 11.87000977 15.16063477 11.87000977 14.15063477 13.38500977 C9.66392743 11.75778844 6.2512568 9.43793232 2.43188477 6.62719727 C-0.26453903 5.1589391 -1.82419255 4.91106605 -4.84936523 5.38500977 C-7.00130893 8.61292531 -7.05022966 9.66901786 -6.84936523 13.38500977 C-6.29764648 13.64024414 -5.74592773 13.89547852 -5.17749023 14.15844727 C-2.48299465 15.57803051 -0.08157796 17.2463323 2.40063477 19.01000977 C3.29266602 19.64165039 4.18469727 20.27329102 5.10375977 20.92407227 C6.11696289 21.64723633 6.11696289 21.64723633 7.15063477 22.38500977 C6.82063477 23.70500977 6.49063477 25.02500977 6.15063477 26.38500977 C2.17266532 25.00198813 -0.70869148 23.15650379 -3.97436523 20.51000977 C-4.82256836 19.83196289 -5.67077148 19.15391602 -6.54467773 18.45532227 C-8.68789204 16.53006195 -10.34983681 14.84012003 -11.84936523 12.38500977 C-11.84936523 8.12404714 -11.241802 5.94393486 -8.78686523 2.44750977 C-5.64027195 0.23819959 -3.80102723 -0.10042746 0 0 Z " fill="#3D3D3D" transform="translate(379.849365234375,325.614990234375)"/>
<path d="M0 0 C2.03637695 1.49047852 2.03637695 1.49047852 3.98828125 3.37890625 C4.69404297 4.05244141 5.39980469 4.72597656 6.12695312 5.41992188 C6.84818359 6.12697266 7.56941406 6.83402344 8.3125 7.5625 C9.05306641 8.27341797 9.79363281 8.98433594 10.55664062 9.71679688 C12.37971414 11.4692998 14.19356106 13.23038182 16 15 C15.34 15.66 14.68 16.32 14 17 C11.65956673 16.68794223 10.12215089 16.07736223 8.125 14.8125 C4.9821642 13.61082749 3.01469264 14.76671665 0 16 C0.33 18.64 0.66 21.28 1 24 C-0.32 24.33 -1.64 24.66 -3 25 C-5.06297567 16.7480973 -6.02716362 8.4346984 -7 0 C-4.24863361 -1.37568319 -2.91871803 -0.86049097 0 0 Z M-2 5 C-1.67 7.31 -1.34 9.62 -1 12 C0.32 11.67 1.64 11.34 3 11 C1.63016497 7.83884224 1.0109362 7.0072908 -2 5 Z " fill="#4F4F50" transform="translate(174,102)"/>
<path d="M0 0 C0.99 0.99 1.98 1.98 3 3 C2.01 6.3 1.02 9.6 0 13 C5.445 13.495 5.445 13.495 11 14 C11.33 15.32 11.66 16.64 12 18 C7.38 18.33 2.76 18.66 -2 19 C-3.32 22.63 -4.64 26.26 -6 30 C-7.32 29.34 -8.64 28.68 -10 28 C-9.01 24.7 -8.02 21.4 -7 18 C-10.3 18 -13.6 18 -17 18 C-17.66 16.68 -18.32 15.36 -19 14 C-14.38 14 -9.76 14 -5 14 C-4.54625 12.4325 -4.0925 10.865 -3.625 9.25 C-2.67582623 5.97103608 -1.61725534 3.00950123 0 0 Z " fill="#404040" transform="translate(126,325)"/>
<path d="M0 0 C7.59 0 15.18 0 23 0 C23.061875 2.413125 23.12375 4.82625 23.1875 7.3125 C23.21481201 8.06829346 23.24212402 8.82408691 23.27026367 9.6027832 C23.30619052 12.48736179 23.32169098 14.51309009 21.70703125 16.95703125 C18.81244293 18.72557834 16.28417924 18.35187635 13 18 C10.89641619 16.45737187 10.15945841 15.31891683 9 13 C8.86440682 9.99525503 8.95700984 7.00931153 9 4 C6.03 4 3.06 4 0 4 C0 2.68 0 1.36 0 0 Z M13 4 C12.979375 5.27875 12.95875 6.5575 12.9375 7.875 C12.92589844 8.59429687 12.91429687 9.31359375 12.90234375 10.0546875 C12.87350758 12.08185404 12.87350758 12.08185404 14 14 C17.29075996 13.62095792 17.29075996 13.62095792 20 12 C20.07148199 10.64756083 20.08399454 9.29165633 20.0625 7.9375 C20.041875 6.638125 20.02125 5.33875 20 4 C17.69 4 15.38 4 13 4 Z " fill="#333333" transform="translate(396,241)"/>
<path d="M0 0 C0.99 0.33 1.98 0.66 3 1 C2.36934243 4.21852831 1.21979305 6.50801069 -0.5625 9.25 C-1.01753906 9.95640625 -1.47257812 10.6628125 -1.94140625 11.390625 C-2.46541016 12.18726563 -2.46541016 12.18726563 -3 13 C-1.68 13.66 -0.36 14.32 1 15 C2.98 12.36 4.96 9.72 7 7 C8.32 7.33 9.64 7.66 11 8 C9.35 11.3 7.7 14.6 6 18 C8.31 19.65 10.62 21.3 13 23 C12.34 24.32 11.68 25.64 11 27 C8.39536997 25.3757418 5.79137745 23.75046434 3.1875 22.125 C2.44951172 21.66480469 1.71152344 21.20460937 0.95117188 20.73046875 C0.23896484 20.28574219 -0.47324219 19.84101563 -1.20703125 19.3828125 C-1.8616333 18.97434082 -2.51623535 18.56586914 -3.19067383 18.14501953 C-4.8092467 17.1207169 -6.40624377 16.06250416 -8 15 C-7.4520917 10.7170548 -5.97567196 8.14864359 -3.4375 4.6875 C-2.79683594 3.80449219 -2.15617187 2.92148438 -1.49609375 2.01171875 C-0.75552734 1.01591797 -0.75552734 1.01591797 0 0 Z " fill="#414141" transform="translate(114,149)"/>
<path d="M0 0 C2.125 0.375 2.125 0.375 4 1 C3.0641738 3.59151871 2.28747759 5.67009569 0.46484375 7.76171875 C-1.48439313 10.74015271 -1.47226179 13.02942412 -1.625 16.5625 C-1.9205298 22.7615894 -1.9205298 22.7615894 -3 26 C-4.32 25.34 -5.64 24.68 -7 24 C-7 20.37 -7 16.74 -7 13 C-8.03125 13.515625 -9.0625 14.03125 -10.125 14.5625 C-13.73052374 16.13395026 -16.15678443 16.03110662 -20 15 C-20 14.34 -20 13.68 -20 13 C-17.7101766 11.9955866 -15.4183401 10.99632388 -13.125 10 C-12.47402344 9.71382813 -11.82304687 9.42765625 -11.15234375 9.1328125 C-6.2265625 7 -6.2265625 7 -4 7 C-3.71125 6.21625 -3.4225 5.4325 -3.125 4.625 C-2 2 -2 2 0 0 Z " fill="#5D5D5D" transform="translate(163,366)"/>
<path d="M0 0 C0.99 0 1.98 0 3 0 C5.15625 2.30078125 5.15625 2.30078125 7.5 5.3125 C11.0317947 9.85221141 11.0317947 9.85221141 15 14 C16.98 12.68 18.96 11.36 21 10 C21.33 11.32 21.66 12.64 22 14 C20.44555348 15.46691458 18.88107825 16.92320641 17.3125 18.375 C16.44238281 19.18710937 15.57226562 19.99921875 14.67578125 20.8359375 C12.13628893 22.88977509 10.07974134 23.9900668 7 25 C7 20.73173127 7.37613513 20.06117568 10 17 C9.19433594 16.10796875 8.38867188 15.2159375 7.55859375 14.296875 C6.5175657 13.11516748 5.47723715 11.93284348 4.4375 10.75 C3.90447266 10.16347656 3.37144531 9.57695312 2.82226562 8.97265625 C1.30859375 7.234375 1.30859375 7.234375 -1 4 C-0.64428711 1.79785156 -0.64428711 1.79785156 0 0 Z " fill="#454545" transform="translate(343,360)"/>
<path d="M0 0 C1.32 0 2.64 0 4 0 C4.66 1.98 5.32 3.96 6 6 C7.19238281 5.55527344 8.38476562 5.11054688 9.61328125 4.65234375 C11.17951168 4.0802476 12.7459277 3.50865934 14.3125 2.9375 C15.09818359 2.64294922 15.88386719 2.34839844 16.69335938 2.04492188 C17.45068359 1.77099609 18.20800781 1.49707031 18.98828125 1.21484375 C19.68477783 0.95823975 20.38127441 0.70163574 21.09887695 0.43725586 C23 0 23 0 26 1 C26 1.99 26 2.98 26 4 C23.56495491 5.0063655 21.12729136 6.00526413 18.6875 7 C17.99720703 7.28617187 17.30691406 7.57234375 16.59570312 7.8671875 C13.58454326 9.08910744 11.28113016 10 8 10 C8.66 12.64 9.32 15.28 10 18 C8.68 18.33 7.36 18.66 6 19 C4.99394407 16.39802798 3.99497475 13.79370638 3 11.1875 C2.57074219 10.08051758 2.57074219 10.08051758 2.1328125 8.95117188 C1.86210938 8.23896484 1.59140625 7.52675781 1.3125 6.79296875 C1.06113281 6.1383667 0.80976562 5.48376465 0.55078125 4.80932617 C0 3 0 3 0 0 Z " fill="#404040" transform="translate(89,298)"/>
<path d="M0 0 C1.32 0.33 2.64 0.66 4 1 C2.10486456 5.97703044 -0.32057738 10.62676615 -2.7578125 15.35546875 C-4.14171769 17.81475018 -4.14171769 17.81475018 -4 20 C-1.53673288 21.6446674 -1.53673288 21.6446674 1 23 C0.67 23.99 0.34 24.98 0 26 C-4.53847198 24.65072455 -8.31932246 22.80840652 -12.375 20.375 C-13.43460938 19.74335938 -14.49421875 19.11171875 -15.5859375 18.4609375 C-16.78089844 17.73777344 -16.78089844 17.73777344 -18 17 C-17.505 15.515 -17.505 15.515 -17 14 C-14.36 14.66 -11.72 15.32 -9 16 C-6.03 10.72 -3.06 5.44 0 0 Z " fill="#474747" transform="translate(179,376)"/>
<path d="M0 0 C3.40582416 1.70291208 4.23802888 5.57670224 5.6875 8.9375 C6.02072266 9.67935547 6.35394531 10.42121094 6.69726562 11.18554688 C7.53054465 13.09637175 8.27238686 15.04649424 9 17 C8.67 17.66 8.34 18.32 8 19 C7.01 19 6.02 19 5 19 C4.34 17.02 3.68 15.04 3 13 C-6.405 16.96 -6.405 16.96 -16 21 C-16.33 19.68 -16.66 18.36 -17 17 C-11.72 14.36 -6.44 11.72 -1 9 C-1.33 6.36 -1.66 3.72 -2 1 C-1.34 0.67 -0.68 0.34 0 0 Z " fill="#484848" transform="translate(399,170)"/>
<path d="M0 0 C0 0.99 0 1.98 0 3 C-2.64 3.33 -5.28 3.66 -8 4 C-7.855625 5.02480469 -7.71125 6.04960938 -7.5625 7.10546875 C-7.37482375 8.46612154 -7.18733358 9.82679999 -7 11.1875 C-6.85691406 12.19780273 -6.85691406 12.19780273 -6.7109375 13.22851562 C-6.21675387 16.84664577 -5.88653869 20.34796401 -6 24 C-7.32 24 -8.64 24 -10 24 C-10.33745354 21.60468244 -10.6700829 19.20885732 -11 16.8125 C-11.14308594 15.80219727 -11.14308594 15.80219727 -11.2890625 14.77148438 C-11.78324613 11.15335423 -12.11346131 7.65203599 -12 4 C-12.99 4.495 -12.99 4.495 -14 5 C-15.99960012 5.039992 -18.00047242 5.04346799 -20 5 C-20 3.68 -20 2.36 -20 1 C-13.30324864 -0.03026944 -6.7685324 -0.10152799 0 0 Z " fill="#343434" transform="translate(245,81)"/>
<path d="M0 0 C1.32 0 2.64 0 4 0 C4.18451025 14.78132118 4.18451025 14.78132118 3 21 C5.64 21 8.28 21 11 21 C11 21.99 11 22.98 11 24 C4.4 24 -2.2 24 -9 24 C-9 22.68 -9 21.36 -9 20 C-6.36 20 -3.72 20 -1 20 C-1.020625 18.741875 -1.04125 17.48375 -1.0625 16.1875 C-1.07115072 10.75485053 -0.56512387 5.39895124 0 0 Z " fill="#444444" transform="translate(245,394)"/>
<path d="M0 0 C0.83661862 2.7907207 1.66942737 5.58248012 2.5 8.375 C2.73847656 9.1690625 2.97695312 9.963125 3.22265625 10.78125 C3.44824219 11.54179688 3.67382812 12.30234375 3.90625 13.0859375 C4.22045898 14.1385376 4.22045898 14.1385376 4.54101562 15.21240234 C5 17 5 17 5 19 C7.9296875 18.21875 7.9296875 18.21875 10.859375 17.4375 C13 17 13 17 17 17 C17 18.32 17 19.64 17 21 C15.25183142 21.50636607 13.50137737 22.00484619 11.75 22.5 C10.77546875 22.7784375 9.8009375 23.056875 8.796875 23.34375 C6 24 6 24 2 24 C0.99325541 20.73120384 -0.00422489 17.4596529 -1 14.1875 C-1.28617188 13.25873047 -1.57234375 12.32996094 -1.8671875 11.37304688 C-2.13789063 10.48037109 -2.40859375 9.58769531 -2.6875 8.66796875 C-2.93886719 7.84578857 -3.19023437 7.0236084 -3.44921875 6.17651367 C-4 4 -4 4 -4 1 C-2 0 -2 0 0 0 Z " fill="#393939" transform="translate(204,87)"/>
<path d="M0 0 C1.796875 0.03515625 1.796875 0.03515625 4 1 C5.29029101 3.50659744 6.29819657 5.80790021 7.25 8.4375 C7.518125 9.13166016 7.78625 9.82582031 8.0625 10.54101562 C10 15.64672353 10 15.64672353 10 18 C10.61488281 17.69964844 11.22976562 17.39929688 11.86328125 17.08984375 C12.67152344 16.70957031 13.47976562 16.32929687 14.3125 15.9375 C15.11300781 15.55464844 15.91351563 15.17179687 16.73828125 14.77734375 C19 14 19 14 22 15 C22 15.99 22 16.98 22 18 C20.06767179 18.86580287 18.12892806 19.71729941 16.1875 20.5625 C15.10855469 21.03816406 14.02960938 21.51382813 12.91796875 22.00390625 C10 23 10 23 7 22 C5.90917969 20.08227539 5.90917969 20.08227539 4.921875 17.59765625 C4.56609375 16.70755859 4.2103125 15.81746094 3.84375 14.90039062 C3.4828125 13.96388672 3.121875 13.02738281 2.75 12.0625 C2.37359375 11.12986328 1.9971875 10.19722656 1.609375 9.23632812 C-0.41432595 4.09151486 -0.41432595 4.09151486 -1 2 C-0.67 1.34 -0.34 0.68 0 0 Z " fill="#464646" transform="translate(183,94)"/>
<path d="M0 0 C3.20861774 0.13995514 6.41681288 0.28802257 9.625 0.4375 C10.52863281 0.47681641 11.43226563 0.51613281 12.36328125 0.55664062 C16.98216146 0.77578458 21.45153636 1.1008851 26 2 C26.28125 4.29296875 26.28125 4.29296875 26 7 C24.03125 8.80078125 24.03125 8.80078125 21.5 10.3125 C20.6646875 10.82425781 19.829375 11.33601562 18.96875 11.86328125 C18.3190625 12.23839844 17.669375 12.61351562 17 13 C17.62388892 9.38144425 18.1709277 8.8290723 21 6 C18.03 5.67 15.06 5.34 12 5 C12 6.65 12 8.3 12 10 C11.01 10.495 11.01 10.495 10 11 C9.34 9.35 8.68 7.7 8 6 C5.69 5.67 3.38 5.34 1 5 C0.67 3.35 0.34 1.7 0 0 Z " fill="#414141" transform="translate(386,196)"/>
<path d="M0 0 C5.02636059 0.86738081 8.09789801 3.9306614 11 8 C11.4375 11.9375 11.4375 11.9375 11 15 C10.01 15.33 9.02 15.66 8 16 C7.82984375 15.45730469 7.6596875 14.91460937 7.484375 14.35546875 C5.57974595 8.69466529 5.57974595 8.69466529 1 5 C0.7525 5.598125 0.505 6.19625 0.25 6.8125 C-1.9082461 10.58943068 -5.18936704 12.15614534 -9 14 C-9.99 14.66 -10.98 15.32 -12 16 C-11.14590173 11.49580017 -8.52252531 8.96982667 -5.4375 5.75 C-4.91736328 5.19570312 -4.39722656 4.64140625 -3.86132812 4.0703125 C-2.58069015 2.70743172 -1.2911951 1.35288317 0 0 Z " fill="#383838" transform="translate(356,119)"/>
<path d="M0 0 C0.99 0.33 1.98 0.66 3 1 C2.55149342 2.81495662 2.09090429 4.62693134 1.625 6.4375 C1.36976562 7.44683594 1.11453125 8.45617187 0.8515625 9.49609375 C0 12 0 12 -2 13 C-2.36646578 14.65969627 -2.69173437 16.32851527 -3 18 C-3.77015432 20.26484405 -4.58535962 22.51471187 -5.4375 24.75 C-6.08525391 26.47476563 -6.08525391 26.47476563 -6.74609375 28.234375 C-8 31 -8 31 -10 32 C-10.66 31.67 -11.32 31.34 -12 31 C-10.0200675 23.96622835 -7.62609161 17.20437917 -4.875 10.4375 C-4.51535156 9.53708984 -4.15570313 8.63667969 -3.78515625 7.70898438 C-1.13620022 1.13620022 -1.13620022 1.13620022 0 0 Z " fill="#5A5A5A" transform="translate(111,178)"/>
<path d="M0 0 C0.99 0.33 1.98 0.66 3 1 C2.35983027 6.13756468 0.80299667 10.58790181 -1.0625 15.375 C-1.34416016 16.11105469 -1.62582031 16.84710938 -1.91601562 17.60546875 C-2.60566618 19.4055736 -3.30213932 21.2030621 -4 23 C-5.65 22.67 -7.3 22.34 -9 22 C-9.33 21.01 -9.66 20.02 -10 19 C-9.01 19 -8.02 19 -7 19 C-5.97296252 13.44506076 -5.97296252 13.44506076 -7 8 C-5.68 8.33 -4.36 8.66 -3 9 C-2.87625 8.071875 -2.7525 7.14375 -2.625 6.1875 C-2 3 -2 3 0 0 Z " fill="#404040" transform="translate(204,387)"/>
<path d="M0 0 C0.3403125 0.86625 0.3403125 0.86625 0.6875 1.75 C3.0835888 5.85758081 5.85025334 7.65933432 10.375 9 C15.12701226 9 17.10239003 7.624921 21 5 C20.52238806 10.37313433 20.52238806 10.37313433 18.4375 12.875 C14.95148255 14.48393113 11.73281167 14.53942365 8 14 C4.51918071 12.62080745 1.06823418 11.21725317 -1 8 C-1.25 4.375 -1.25 4.375 -1 1 C-0.67 0.67 -0.34 0.34 0 0 Z " fill="#3F3F3F" transform="translate(382,314)"/>
<path d="M0 0 C0.91007812 0.00902344 1.82015625 0.01804687 2.7578125 0.02734375 C3.80582031 0.04474609 3.80582031 0.04474609 4.875 0.0625 C4.875 1.3825 4.875 2.7025 4.875 4.0625 C0.66732825 4.56817374 -3.54123253 5.0660354 -7.75 5.5625 C-8.93980469 5.70558594 -10.12960937 5.84867187 -11.35546875 5.99609375 C-12.50917969 6.13144531 -13.66289062 6.26679688 -14.8515625 6.40625 C-16.43831787 6.59477539 -16.43831787 6.59477539 -18.05712891 6.78710938 C-21.09822227 7.06009627 -24.07352512 7.11049174 -27.125 7.0625 C-27.125 6.0725 -27.125 5.0825 -27.125 4.0625 C-24.9569144 2.9784572 -23.46316549 2.79960276 -21.0625 2.5625 C-19.86753906 2.43875 -19.86753906 2.43875 -18.6484375 2.3125 C-16.96614583 2.14583333 -15.28385417 1.97916667 -13.6015625 1.8125 C-12.40660156 1.68875 -12.40660156 1.68875 -11.1875 1.5625 C-10.09115234 1.45421875 -10.09115234 1.45421875 -8.97265625 1.34375 C-0.13370422 -0.00171416 -0.13370422 -0.00171416 0 0 Z " fill="#4B4B4B" transform="translate(279.125,398.9375)"/>
<path d="M0 0 C1.32 0.33 2.64 0.66 4 1 C2.69951304 8.77232205 0.99548103 16.37726245 -1 24 C-2.65 24 -4.3 24 -6 24 C-6.33 21.36 -6.66 18.72 -7 16 C-5.68 16.33 -4.36 16.66 -3 17 C-2.95101563 16.35933594 -2.90203125 15.71867187 -2.8515625 15.05859375 C-2.3959855 9.78803915 -1.6402621 5.03013712 0 0 Z " fill="#3C3C3C" transform="translate(297,87)"/>
<path d="M0 0 C0.5053125 0.41507813 1.010625 0.83015625 1.53125 1.2578125 C1.53125 1.9178125 1.53125 2.5778125 1.53125 3.2578125 C-1.37010355 5.44773595 -4.57974254 7.18090104 -7.71875 9.0078125 C-8.59144531 9.54019531 -9.46414063 10.07257813 -10.36328125 10.62109375 C-11.20761719 11.11480469 -12.05195313 11.60851562 -12.921875 12.1171875 C-13.69692383 12.57577148 -14.47197266 13.03435547 -15.27050781 13.50683594 C-17.46875 14.2578125 -17.46875 14.2578125 -19.75292969 13.39160156 C-20.31915039 13.01745117 -20.88537109 12.64330078 -21.46875 12.2578125 C-18.07300126 8.49823354 -14.25463569 5.99595446 -9.96875 3.3828125 C-9.30488281 2.95484375 -8.64101563 2.526875 -7.95703125 2.0859375 C-3.04368126 -0.91503076 -3.04368126 -0.91503076 0 0 Z " fill="#3A3A31" transform="translate(396.46875,164.7421875)"/>
<path d="M0 0 C2.125 0.375 2.125 0.375 4 1 C3.50716789 5.17011784 1.3398194 6.83068857 -1.75 9.5 C-3.04164063 10.62921875 -3.04164063 10.62921875 -4.359375 11.78125 C-6.87548146 13.89537495 -9.42303568 15.96067572 -12 18 C-13.32 17.34 -14.64 16.68 -16 16 C-12.21309138 11.36103694 -8.30424428 7.3506875 -3.734375 3.48046875 C-1.91019463 1.96268408 -1.91019463 1.96268408 0 0 Z " fill="#3C3C3C" transform="translate(373,136)"/>
<path d="M0 0 C7.92 0.33 15.84 0.66 24 1 C24 2.32 24 3.64 24 5 C16.08 5 8.16 5 0 5 C0 3.35 0 1.7 0 0 Z " fill="#484848" transform="translate(82,242)"/>
<path d="M0 0 C4.90311363 2.08613794 6.90738437 5.64215999 9.8125 9.9375 C10.32748047 10.66646484 10.84246094 11.39542969 11.37304688 12.14648438 C11.85451172 12.84966797 12.33597656 13.55285156 12.83203125 14.27734375 C13.27264893 14.91921631 13.7132666 15.56108887 14.16723633 16.22241211 C15 18 15 18 14 21 C11.53350694 20.6192706 10.28319101 20.29688771 8.53613281 18.46533203 C8.09624023 17.81935059 7.65634766 17.17336914 7.203125 16.5078125 C6.71972656 15.80269531 6.23632812 15.09757812 5.73828125 14.37109375 C5.24714844 13.62988281 4.75601562 12.88867188 4.25 12.125 C3.74339844 11.39152344 3.23679687 10.65804688 2.71484375 9.90234375 C-1 4.40517604 -1 4.40517604 -1 1 C-0.67 0.67 -0.34 0.34 0 0 Z " fill="#505050" transform="translate(333,368)"/>
<path d="M0 0 C0.99 0.66 1.98 1.32 3 2 C3 2.66 3 3.32 3 4 C1.34516392 5.49877503 -0.37590512 6.92488473 -2.125 8.3125 C-5.31910123 10.85382219 -8.46798785 13.39311088 -11.5 16.125 C-12.325 16.74375 -13.15 17.3625 -14 18 C-14.99 17.67 -15.98 17.34 -17 17 C-16.69046481 13.90464807 -15.97073546 12.9721103 -13.671875 10.78125 C-12.70765625 10.0284375 -11.7434375 9.275625 -10.75 8.5 C-9.79609375 7.7471875 -8.8421875 6.994375 -7.859375 6.21875 C-6.91578125 5.4865625 -5.9721875 4.754375 -5 4 C-3.33155585 2.66889156 -1.66429367 1.33629418 0 0 Z " fill="#393939" transform="translate(139,343)"/>
<path d="M0 0 C2.9375 2.4375 2.9375 2.4375 5 5 C5.33 5.33 5.66 5.66 6 6 C6.37086093 11.8410596 6.37086093 11.8410596 6 14 C5.01 14.66 4.02 15.32 3 16 C1.56921707 13.58555381 0.98606 12.28577002 1.125 9.4375 C1.26046385 6.85840478 1.26046385 6.85840478 -0.8125 5.125 C-1.534375 4.75375 -2.25625 4.3825 -3 4 C-6.0745356 4.7763932 -6.0745356 4.7763932 -8 7 C-8.33 6.34 -8.66 5.68 -9 5 C-9.66 6.32 -10.32 7.64 -11 9 C-11.35555556 3.66666667 -11.35555556 3.66666667 -10 1.125 C-6.76604644 -0.69409888 -3.54648595 -0.7673683 0 0 Z " fill="#494949" transform="translate(148,351)"/>
<path d="M0 0 C3.1361032 2.17114837 3.85131216 3.4281237 4.8125 7.125 C5 10 5 10 4 12 C2.68 11.67 1.36 11.34 0 11 C0 9.02 0 7.04 0 5 C-2.31 4.67 -4.62 4.34 -7 4 C-7.33 4.99 -7.66 5.98 -8 7 C-8.99 7 -9.98 7 -11 7 C-11.33 7.66 -11.66 8.32 -12 9 C-12.6875 7.3125 -12.6875 7.3125 -13 5 C-9.88496381 -1.37840743 -6.66383811 -1.68905204 0 0 Z " fill="#4A4A4A" transform="translate(339,104)"/>
<path d="M0 0 C1.32 0.33 2.64 0.66 4 1 C3.354523 8.90709331 1.13002861 16.39133967 -1 24 C-2.32 23.67 -3.64 23.34 -5 23 C-4.354523 15.09290669 -2.13002861 7.60866033 0 0 Z " fill="#3A3A3A" transform="translate(210,389)"/>
<path d="M0 0 C1.32 0 2.64 0 4 0 C3.38541771 8.0704358 2.30774665 16.01385781 1 24 C-0.32 24 -1.64 24 -3 24 C-2.55348122 15.84515697 -1.88849677 7.95735532 0 0 Z " fill="#484848" transform="translate(273,82)"/>
<path d="M0 0 C0.33 0 0.66 0 1 0 C1 3.3 1 6.6 1 10 C10.405 9.505 10.405 9.505 20 9 C20.33 8.34 20.66 7.68 21 7 C21.66 8.65 22.32 10.3 23 12 C18.10845663 13.20516286 13.19724878 13.33461434 8.1875 13.5625 C7.30384766 13.60568359 6.42019531 13.64886719 5.50976562 13.69335938 C3.34000377 13.79891536 1.1700209 13.89991071 -1 14 C-1.02685938 11.85423363 -1.04633088 9.70837355 -1.0625 7.5625 C-1.07410156 6.36753906 -1.08570312 5.17257812 -1.09765625 3.94140625 C-1 1 -1 1 0 0 Z " fill="#222222" transform="translate(84,257)"/>
<path d="M0 0 C5.01037815 -0.61351569 8.89289916 -0.66406784 13.0625 2.4375 C15.76905343 5.06887139 16.46419544 6.92735076 16.5625 10.6875 C16.38115169 14.07461847 15.97121981 15.04317029 14 18 C13.67 17.34 13.34 16.68 13 16 C12.34 16 11.68 16 11 16 C11.103125 14.7625 11.20625 13.525 11.3125 12.25 C11.30058512 8.88404781 11.21485214 8.25391616 8.9375 5.5625 C5.57120032 3.77191506 2.78134444 3.29657603 -1 3 C-0.67 2.01 -0.34 1.02 0 0 Z " fill="#3F3F3F" transform="translate(397,284)"/>
<path d="M0 0 C2.70567626 1.82339052 4.53728718 3.07457436 6 6 C6.039992 7.99960012 6.04346799 10.00047242 6 12 C4.125 11.8125 4.125 11.8125 2 11 C1.71125 10.195625 1.4225 9.39125 1.125 8.5625 C0.20513932 5.70277415 0.20513932 5.70277415 -2.9375 4.625 C-6.02219739 3.72987692 -6.02219739 3.72987692 -9 5 C-9.33 4.34 -9.66 3.68 -10 3 C-11.65 4.32 -13.3 5.64 -15 7 C-14.9375 5.25 -14.9375 5.25 -14 3 C-9.05864903 -0.65659971 -6.14012957 -1.81929765 0 0 Z " fill="#575757" transform="translate(317,93)"/>
<path d="M0 0 C3.08272534 1.12674561 4.86159783 3.20815341 6.90234375 5.6953125 C6.24234375 5.6953125 5.58234375 5.6953125 4.90234375 5.6953125 C5.23234375 7.3453125 5.56234375 8.9953125 5.90234375 10.6953125 C4.99484375 9.8909375 4.08734375 9.0865625 3.15234375 8.2578125 C-0.06855658 5.50425385 -0.06855658 5.50425385 -4.09765625 4.6953125 C-6.12910266 5.62977785 -8.13299212 6.62756026 -10.09765625 7.6953125 C-10.75765625 7.6953125 -11.41765625 7.6953125 -12.09765625 7.6953125 C-13.08765625 8.1903125 -13.08765625 8.1903125 -14.09765625 8.6953125 C-13.14577753 5.26854912 -12.14184214 3.73529021 -9.47265625 1.3203125 C-5.77797674 -0.45860726 -3.94168533 -0.71116779 0 0 Z " fill="#4D4D4D" transform="translate(135.09765625,133.3046875)"/>
<path d="M0 0 C1.22589844 0.01353516 1.22589844 0.01353516 2.4765625 0.02734375 C3.41628906 0.04474609 3.41628906 0.04474609 4.375 0.0625 C2.395 1.0525 2.395 1.0525 0.375 2.0625 C1.695 2.7225 3.015 3.3825 4.375 4.0625 C3.385 4.5575 3.385 4.5575 2.375 5.0625 C1.75625 4.85625 1.1375 4.65 0.5 4.4375 C-1.68605072 3.86222615 -1.68605072 3.86222615 -3.875 4.9375 C-6.63767307 8.29217444 -5.9405035 11.88207867 -5.625 16.0625 C-6.615 16.3925 -7.605 16.7225 -8.625 17.0625 C-10.73400443 13.63536781 -11.10395471 11.05378926 -10.625 7.0625 C-7.57962593 1.68233914 -6.10802233 -0.08725746 0 0 Z " fill="#4B4B4B" transform="translate(364.625,343.9375)"/>
<path d="M0 0 C4.66154042 1.49835228 5.86610751 4.88463591 8 9 C6.56967163 10.17544805 5.13046758 11.34010262 3.6875 12.5 C2.88699219 13.1496875 2.08648437 13.799375 1.26171875 14.46875 C-1 16 -1 16 -4 16 C-4.625 13.625 -4.625 13.625 -5 11 C-2.77810176 8.77810176 -0.91517292 8.07401108 2 7 C1.484375 6.401875 0.96875 5.80375 0.4375 5.1875 C-0.036875 4.465625 -0.51125 3.74375 -1 3 C-0.67 2.01 -0.34 1.02 0 0 Z " fill="#545454" transform="translate(377,157)"/>
<path d="M0 0 C0.99 0 1.98 0 3 0 C3 7.59 3 15.18 3 23 C1.35 23 -0.3 23 -2 23 C-2 18.38 -2 13.76 -2 9 C-1.34 9 -0.68 9 0 9 C0 6.03 0 3.06 0 0 Z " fill="#303030" transform="translate(264,82)"/>
<path d="M0 0 C5.94357836 -0.89153675 8.98223464 -0.40920219 13.92480469 3.21899414 C16.32761738 5.09847509 18.67864477 7.02036712 21 9 C20.01 10.485 20.01 10.485 19 12 C15.42705968 10.67997942 12.36046508 9.10478612 9.1875 7 C8.39730469 6.484375 7.60710937 5.96875 6.79296875 5.4375 C6.20128906 4.963125 5.60960937 4.48875 5 4 C5 3.34 5 2.68 5 2 C3.02 2 1.04 2 -1 2 C-0.67 1.34 -0.34 0.68 0 0 Z " fill="#424242" transform="translate(375,327)"/>
<path d="M0 0 C0.99 0 1.98 0 3 0 C5.26171875 2.30078125 5.26171875 2.30078125 7.6875 5.3125 C8.49574219 6.29863281 9.30398438 7.28476562 10.13671875 8.30078125 C12 11 12 11 12 14 C11.34 13.67 10.68 13.34 10 13 C10.33 14.32 10.66 15.64 11 17 C9.30471745 15.35608965 7.64494492 13.69368403 6 12 C5.36449219 11.34902344 4.72898437 10.69804687 4.07421875 10.02734375 C3.43097656 9.33769531 2.78773438 8.64804687 2.125 7.9375 C1.50882812 7.28652344 0.89265625 6.63554687 0.2578125 5.96484375 C-1 4 -1 4 -0.6953125 1.75390625 C-0.46585937 1.17511719 -0.23640625 0.59632813 0 0 Z " fill="#575757" transform="translate(343,360)"/>
<path d="M0 0 C0.99 0.495 0.99 0.495 2 1 C2.39310414 3.32288812 2.50749695 5.61845176 2.65625 7.96875 C2.82640625 8.97421875 2.82640625 8.97421875 3 10 C3.66 10.33 4.32 10.66 5 11 C5.4140625 13.28515625 5.4140625 13.28515625 5.625 16.0625 C5.69976562 16.98160156 5.77453125 17.90070313 5.8515625 18.84765625 C5.90054688 19.55792969 5.94953125 20.26820312 6 21 C4.68 21.33 3.36 21.66 2 22 C-0.01670288 14.56340812 -0.2137731 7.68395543 0 0 Z " fill="#363636" transform="translate(169,105)"/>
<path d="M0 0 C0.99 0.33 1.98 0.66 3 1 C2.67447917 2.98567708 2.34895833 4.97135417 2.0234375 6.95703125 C1.80422152 9.31755824 1.80422152 9.31755824 4 12 C4.99 12.66 5.98 13.32 7 14 C6.34 14 5.68 14 5 14 C5 14.66 5 15.32 5 16 C5.99 16.33 6.98 16.66 8 17 C4.29258749 16.74722187 2.46290515 16.4253723 -0.3125 13.875 C-2.33500505 10.42925066 -2.92744108 7.99074042 -3 4 C-1.5625 1.5625 -1.5625 1.5625 0 0 Z " fill="#4A4A4A" transform="translate(102,317)"/>
<path d="M0 0 C0.99 0.33 1.98 0.66 3 1 C3.268125 2.11375 3.53625 3.2275 3.8125 4.375 C4.65044185 8.2473577 4.65044185 8.2473577 8.125 9.9375 C9.548125 10.4634375 9.548125 10.4634375 11 11 C10.67 11.99 10.34 12.98 10 14 C5.19240183 13.55278157 2.22550613 12.69984527 -1 9 C-1.48773287 6.15119663 -1.287934 3.927329 -1 1 C-0.67 0.67 -0.34 0.34 0 0 Z " fill="#4C4C4C" transform="translate(322,114)"/>
<path d="M0 0 C0.99 0.33 1.98 0.66 3 1 C2.938125 1.928125 2.87625 2.85625 2.8125 3.8125 C2.70210808 6.93821954 2.70210808 6.93821954 4.3125 8.75 C5.84031928 9.88171799 7.41800622 10.94533748 9 12 C7.68 12 6.36 12 5 12 C5 12.66 5 13.32 5 14 C6.98 14 8.96 14 11 14 C11 14.33 11 14.66 11 15 C6.68935398 15.42261236 4.67054644 15.49562128 1.125 12.875 C-1.22219132 9.69938821 -1.91646505 7.92614277 -2 4 C-1.0625 1.625 -1.0625 1.625 0 0 Z " fill="#6B6B6B" transform="translate(132,360)"/>
<path d="M0 0 C1.859375 0.12890625 1.859375 0.12890625 4 1 C5.265625 3.65234375 5.265625 3.65234375 6.25 6.9375 C6.58515625 8.01902344 6.9203125 9.10054688 7.265625 10.21484375 C8 13 8 13 8 15 C6.68 15.33 5.36 15.66 4 16 C3.32320342 14.274773 2.65898 12.54461061 2 10.8125 C1.443125 9.36810547 1.443125 9.36810547 0.875 7.89453125 C0.02363228 5.07817642 -0.17072647 2.91835561 0 0 Z " fill="#4E4E4E" transform="translate(294,396)"/>
<path d="M0 0 C1.32 0.66 2.64 1.32 4 2 C2.98949988 4.66404576 2.02766415 5.97707828 -0.1875 7.8125 C-3.82061361 9.3464813 -6.20324498 8.81890795 -10 8 C-10 7.01 -10 6.02 -10 5 C-7 4 -7 4 -4.4375 3.625 C-1.65054236 3.19970033 -1.65054236 3.19970033 0 0 Z " fill="#5B5B5B" transform="translate(373,359)"/>
<path d="M0 0 C0.33 0 0.66 0 1 0 C1 1.65 1 3.3 1 5 C1.66 5 2.32 5 3 5 C2.6875 7.875 2.6875 7.875 2 11 C-1 13 -1 13 -4.5625 12.8125 C-8 12 -8 12 -10 9 C-9.01 9 -8.02 9 -7 9 C-6.67 8.34 -6.34 7.68 -6 7 C-4.35 7.33 -2.7 7.66 -1 8 C-0.67 5.36 -0.34 2.72 0 0 Z " fill="#585858" transform="translate(414,269)"/>
<path d="M0 0 C0 0.99 0 1.98 0 3 C-1.95421035 3.86355778 -3.91351347 4.71559934 -5.875 5.5625 C-6.96554688 6.03816406 -8.05609375 6.51382812 -9.1796875 7.00390625 C-10.11039062 7.33261719 -11.04109375 7.66132813 -12 8 C-12.66 7.67 -13.32 7.34 -14 7 C-13.67 6.34 -13.34 5.68 -13 5 C-14.32 4.67 -15.64 4.34 -17 4 C-14.73291675 3.1344953 -12.46224921 2.28240685 -10.1875 1.4375 C-9.54490234 1.19064453 -8.90230469 0.94378906 -8.24023438 0.68945312 C-3.33984375 -1.11328125 -3.33984375 -1.11328125 0 0 Z " fill="#505050" transform="translate(115,299)"/>
<path d="M0 0 C2 3.75 2 3.75 2 6 C-1.21182149 7.90608098 -3.53882603 8.22266247 -7.25 8.125 C-8.14203125 8.10695313 -9.0340625 8.08890625 -9.953125 8.0703125 C-10.96632813 8.03550781 -10.96632813 8.03550781 -12 8 C-12 6.35 -12 4.7 -12 3 C-11.07767578 3.05220703 -11.07767578 3.05220703 -10.13671875 3.10546875 C-8.92435547 3.14607422 -8.92435547 3.14607422 -7.6875 3.1875 C-6.88699219 3.22230469 -6.08648437 3.25710938 -5.26171875 3.29296875 C-2.52148416 2.93801608 -1.70828921 2.10633718 0 0 Z " fill="#3A3A3A" transform="translate(405,272)"/>
<path d="M0 0 C0.66 0.33 1.32 0.66 2 1 C1.67 1.33 1.34 1.66 1 2 C1.66 2.66 2.32 3.32 3 4 C-3.93 6.97 -3.93 6.97 -11 10 C-11.33 8.68 -11.66 7.36 -12 6 C-10.04669132 4.96958487 -8.08718472 3.9509107 -6.125 2.9375 C-5.03445313 2.36902344 -3.94390625 1.80054688 -2.8203125 1.21484375 C-1.42425781 0.61349609 -1.42425781 0.61349609 0 0 Z " fill="#515151" transform="translate(394,181)"/>
<path d="M0 0 C-0.99 0.680625 -0.99 0.680625 -2 1.375 C-2.99 2.179375 -2.99 2.179375 -4 3 C-4 3.66 -4 4.32 -4 5 C-5.41538717 5.33872513 -6.83237963 5.67074624 -8.25 6 C-9.03890625 6.185625 -9.8278125 6.37125 -10.640625 6.5625 C-13 7 -13 7 -17 7 C-17 5.68 -17 4.36 -17 3 C-14.54383175 2.30378686 -12.0855877 1.61775372 -9.625 0.9375 C-8.57699219 0.63875977 -8.57699219 0.63875977 -7.5078125 0.33398438 C-2.2265625 -1.11328125 -2.2265625 -1.11328125 0 0 Z " fill="#4D4D4D" transform="translate(104,288)"/>
<path d="M0 0 C4.12751449 0.60698743 7.3321148 2.03810791 11 4 C10.34 5.98 9.68 7.96 9 10 C8.34 9.34 7.68 8.68 7 8 C5.68 8.99 4.36 9.98 3 11 C2.67 10.34 2.34 9.68 2 9 C2.66 8.67 3.32 8.34 4 8 C4.33 7.01 4.66 6.02 5 5 C3.02 4.34 1.04 3.68 -1 3 C-0.67 2.01 -0.34 1.02 0 0 Z " fill="#585858" transform="translate(311,104)"/>
<path d="M0 0 C0 0.99 0 1.98 0 3 C-0.66 3 -1.32 3 -2 3 C-2 2.34 -2 1.68 -2 1 C-6.455 1.495 -6.455 1.495 -11 2 C-11 4.31 -11 6.62 -11 9 C-11.33 9 -11.66 9 -12 9 C-12 7.35 -12 5.7 -12 4 C-12.99 4.495 -12.99 4.495 -14 5 C-15.99960012 5.039992 -18.00047242 5.04346799 -20 5 C-20 3.68 -20 2.36 -20 1 C-13.30324864 -0.03026944 -6.7685324 -0.10152799 0 0 Z " fill="#6A6A6A" transform="translate(245,81)"/>
<path d="M0 0 C0.66 0.33 1.32 0.66 2 1 C1.360625 1.5775 0.72125 2.155 0.0625 2.75 C-2.12933933 4.77301497 -2.12933933 4.77301497 -2.5 7.125 C-3 9 -3 9 -5.0625 10.25 C-5.701875 10.4975 -6.34125 10.745 -7 11 C-7.66 10.34 -8.32 9.68 -9 9 C-10.98 9.99 -10.98 9.99 -13 11 C-12.38125 10.0925 -11.7625 9.185 -11.125 8.25 C-9.55610389 5.85051183 -8.19556179 3.59038388 -7 1 C-7 2.32 -7 3.64 -7 5 C-4.69 3.35 -2.38 1.7 0 0 Z " fill="#575757" transform="translate(406,201)"/>
<path d="M0 0 C0.556875 0.391875 1.11375 0.78375 1.6875 1.1875 C1.6875 1.8475 1.6875 2.5075 1.6875 3.1875 C-0.4296875 4.73046875 -0.4296875 4.73046875 -3.1875 6.375 C-4.09242188 6.92542969 -4.99734375 7.47585937 -5.9296875 8.04296875 C-6.71601563 8.42066406 -7.50234375 8.79835937 -8.3125 9.1875 C-8.9725 8.8575 -9.6325 8.5275 -10.3125 8.1875 C-8.87683446 4.78723951 -7.75252151 2.54854329 -4.875 0.1875 C-2.3125 -0.8125 -2.3125 -0.8125 0 0 Z " fill="#4C4C4C" transform="translate(396.3125,164.8125)"/>
<path d="M0 0 C0.66 0 1.32 0 2 0 C2.43126685 5.26145553 2.43126685 5.26145553 2 8 C-0.1875 10.0625 -0.1875 10.0625 -3 11 C-5.8125 10.6875 -5.8125 10.6875 -8 10 C-7 8 -7 8 -4 7 C-3.34 6.01 -2.68 5.02 -2 4 C-1.34 4 -0.68 4 0 4 C0 2.68 0 1.36 0 0 Z " fill="#393939" transform="translate(107,281)"/>
<path d="M0 0 C1.32 0.33 2.64 0.66 4 1 C3.34 4.63 2.68 8.26 2 12 C0.66666667 12 -0.66666667 12 -2 12 C-1.85831863 10.56208484 -1.71148957 9.1246763 -1.5625 7.6875 C-1.48128906 6.88699219 -1.40007812 6.08648437 -1.31640625 5.26171875 C-1 3 -1 3 0 0 Z " fill="#323232" transform="translate(297,87)"/>
<path d="M0 0 C1.32 0.33 2.64 0.66 4 1 C3.14285714 9.57142857 3.14285714 9.57142857 1 13 C0.67 11.68 0.34 10.36 0 9 C-0.66 10.98 -1.32 12.96 -2 15 C-3.31534494 11.34142468 -2.65468309 8.91973519 -1.5625 5.25 C-1.27503906 4.26515625 -0.98757812 3.2803125 -0.69140625 2.265625 C-0.46324219 1.51796875 -0.23507813 0.7703125 0 0 Z " fill="#5C5C5C" transform="translate(210,389)"/>
<path d="M0 0 C1.32 0.33 2.64 0.66 4 1 C3.21572648 2.64936913 2.42234741 4.29441127 1.625 5.9375 C1.18414062 6.85402344 0.74328125 7.77054688 0.2890625 8.71484375 C-1 11 -1 11 -3 12 C-3 11.01 -3 10.02 -3 9 C-3.66 9 -4.32 9 -5 9 C-3.7508258 5.54074837 -2.32472205 2.85306797 0 0 Z " fill="#4C4C4C" transform="translate(121,156)"/>
<path d="M0 0 C0.99 0.33 1.98 0.66 3 1 C2.38390949 5.00458831 0.44939347 7.83019669 -2 11 C-2.99 11 -3.98 11 -5 11 C-5.99 11.495 -5.99 11.495 -7 12 C-5.44298069 7.32894208 -2.91552627 3.91294315 0 0 Z " fill="#585858" transform="translate(114,149)"/>
<path d="M0 0 C0 0.33 0 0.66 0 1 C-2.31 1.33 -4.62 1.66 -7 2 C-7 2.99 -7 3.98 -7 5 C-8.8125 6.0625 -8.8125 6.0625 -11 7 C-11.99 6.67 -12.98 6.34 -14 6 C-14.33 8.97 -14.66 11.94 -15 15 C-15.33 15 -15.66 15 -16 15 C-16.29445076 9.99433712 -16.11763863 7.00839253 -13 3 C-9.38884421 -1.02782761 -5.01432757 -0.28928813 0 0 Z " fill="#6E6E6E" transform="translate(404,283)"/>
<path d="M0 0 C1.9375 0.375 1.9375 0.375 4 1 C5.11445498 3.22890995 5.16480286 4.53055106 5.1875 7 C5.20167969 7.70125 5.21585938 8.4025 5.23046875 9.125 C5 11 5 11 3 13 C2.34 12.67 1.68 12.34 1 12 C0.5859375 9.27734375 0.5859375 9.27734375 0.375 5.9375 C0.30023438 4.83277344 0.22546875 3.72804687 0.1484375 2.58984375 C0.09945312 1.73519531 0.05046875 0.88054687 0 0 Z " fill="#393939" transform="translate(140,139)"/>
<path d="M0 0 C0 1.32 0 2.64 0 4 C-5.94 4.495 -5.94 4.495 -12 5 C-11 2 -11 2 -9.375 0.8125 C-6.19617272 -0.27499354 -3.33338467 -0.1282071 0 0 Z " fill="#444444" transform="translate(416,214)"/>
<path d="M0 0 C7.50769231 -0.36923077 7.50769231 -0.36923077 10 1.5 C10.495 2.2425 10.495 2.2425 11 3 C10.34 3.66 9.68 4.32 9 5 C6.3984375 4.9765625 6.3984375 4.9765625 3.375 4.625 C2.37210937 4.51414062 1.36921875 4.40328125 0.3359375 4.2890625 C-0.43492187 4.19367188 -1.20578125 4.09828125 -2 4 C-1.34 2.68 -0.68 1.36 0 0 Z " fill="#3F3F3F" transform="translate(321,375)"/>
<path d="M0 0 C-0.48187633 4.57782516 -0.48187633 4.57782516 -2.6875 6.375 C-5.71097581 7.19215562 -7.97747444 6.68693763 -11 6 C-11 5.34 -11 4.68 -11 4 C-9.5437455 3.32880451 -8.08492133 2.66318193 -6.625 2 C-5.81289062 1.62875 -5.00078125 1.2575 -4.1640625 0.875 C-2 0 -2 0 0 0 Z " fill="#535353" transform="translate(154,375)"/>
<path d="M0 0 C0.33 0 0.66 0 1 0 C1.50432107 5.2953712 0.28757779 7.86704506 -3 12 C-3.99 12.66 -4.98 13.32 -6 14 C-6 13.01 -6 12.02 -6 11 C-6.66 10.67 -7.32 10.34 -8 10 C-5.6875 7.5 -5.6875 7.5 -3 5 C-2.01 5 -1.02 5 0 5 C0 3.35 0 1.7 0 0 Z " fill="#5A5A5A" transform="translate(367,129)"/>
<path d="M0 0 C2.125 0.375 2.125 0.375 4 1 C3.3125 3.375 3.3125 3.375 2 6 C-1.18919414 7.72388873 -4.44289519 8.3902106 -8 9 C-7.38125 8.773125 -6.7625 8.54625 -6.125 8.3125 C-3.36681217 6.6089134 -3.05034149 5.00097569 -2 2 C-1.34 1.34 -0.68 0.68 0 0 Z " fill="#626262" transform="translate(163,366)"/>
<path d="M0 0 C0.33 0 0.66 0 1 0 C0.125 6.75 0.125 6.75 -1 9 C-1.66 9 -2.32 9 -3 9 C-3 7.68 -3 6.36 -3 5 C-5.64 5 -8.28 5 -11 5 C-11 4.34 -11 3.68 -11 3 C-9.1128125 3.0928125 -9.1128125 3.0928125 -7.1875 3.1875 C-3.84872002 3.24805755 -3.84872002 3.24805755 -1.0625 1.5 C-0.711875 1.005 -0.36125 0.51 0 0 Z " fill="#252525" transform="translate(318,111)"/>
<path d="M0 0 C0.33 0.66 0.66 1.32 1 2 C2.953125 1.47916667 4.90625 0.95833333 6.859375 0.4375 C9 0 9 0 13 0 C13 1.32 13 2.64 13 4 C10.36 4.33 7.72 4.66 5 5 C5 4.34 5 3.68 5 3 C3.35 3 1.7 3 0 3 C0 2.01 0 1.02 0 0 Z " fill="#4B4B4B" transform="translate(208,104)"/>
<path d="M0 0 C-0.99 0.66 -1.98 1.32 -3 2 C-4.21284876 5.05429073 -4.21284876 5.05429073 -5 8 C-5.99 8 -6.98 8 -8 8 C-8.33 8.66 -8.66 9.32 -9 10 C-9.6875 8.3125 -9.6875 8.3125 -10 6 C-7.41780817 0.71265482 -5.74504868 -0.15118549 0 0 Z " fill="#5F5F5F" transform="translate(336,103)"/>
<path d="M0 0 C0.33 0 0.66 0 1 0 C1 5.28 1 10.56 1 16 C-0.32 15.34 -1.64 14.68 -3 14 C-2.69249629 11.85344499 -2.3788634 9.70776715 -2.0625 7.5625 C-1.88847656 6.36753906 -1.71445313 5.17257812 -1.53515625 3.94140625 C-1 1 -1 1 0 0 Z " fill="#1D1D1D" transform="translate(159,376)"/>
<path d="M0 0 C0 0.99 0 1.98 0 3 C-4.455 4.485 -4.455 4.485 -9 6 C-8.67 5.01 -8.34 4.02 -8 3 C-8.66 2.67 -9.32 2.34 -10 2 C-3.375 -1.125 -3.375 -1.125 0 0 Z " fill="#5F5F5F" transform="translate(205,109)"/>
<path d="M0 0 C0 1.32 0 2.64 0 4 C-3.47325181 5.1577506 -6.36067448 5.06866652 -10 5 C-9 2 -9 2 -6.6875 0.8125 C-4 0 -4 0 0 0 Z " fill="#363636" transform="translate(361,140)"/>
<path d="M0 0 C0.86625 0.37125 0.86625 0.37125 1.75 0.75 C1.625 2.5 1.625 2.5 0.75 4.75 C-2.3125 7 -2.3125 7 -5.25 8.75 C-6 6.5 -6 6.5 -6.25 3.75 C-3.32317073 -0.36924119 -3.32317073 -0.36924119 0 0 Z " fill="#636363" transform="translate(375.25,136.25)"/>
<path d="M0 0 C1.32 0.33 2.64 0.66 4 1 C2.92598892 3.91517292 2.22189824 5.77810176 0 8 C-0.66 8 -1.32 8 -2 8 C-2.99 8.495 -2.99 8.495 -4 9 C-2.94124926 5.59687262 -1.99097846 2.98646769 0 0 Z " fill="#575757" transform="translate(179,376)"/>
<path d="M0 0 C0 0.33 0 0.66 0 1 C-2.31 1.33 -4.62 1.66 -7 2 C-5.35 2.33 -3.7 2.66 -2 3 C-2 3.33 -2 3.66 -2 4 C-2.94875 4.28875 -3.8975 4.5775 -4.875 4.875 C-8.05211578 5.76825109 -8.05211578 5.76825109 -10 8 C-10.33 7.34 -10.66 6.68 -11 6 C-11.99 6.495 -11.99 6.495 -13 7 C-9.87303606 0.02446506 -7.37889653 -0.36289655 0 0 Z " fill="#6D6D6D" transform="translate(382,326)"/>
<path d="M0 0 C1 4 1 4 0 5.75 C-2.96672303 7.6042019 -5.58497041 7.19330356 -9 7 C-9 6.67 -9 6.34 -9 6 C-7.35 6 -5.7 6 -4 6 C-4 5.34 -4 4.68 -4 4 C-5.32 3.67 -6.64 3.34 -8 3 C-5.36 2.01 -2.72 1.02 0 0 Z " fill="#585858" transform="translate(418,252)"/>
<path d="M0 0 C0.66 0.33 1.32 0.66 2 1 C1.57847656 1.47050781 1.15695312 1.94101563 0.72265625 2.42578125 C0.17480469 3.04839844 -0.37304688 3.67101562 -0.9375 4.3125 C-1.48277344 4.92738281 -2.02804687 5.54226562 -2.58984375 6.17578125 C-4.20081559 8.05241958 -4.20081559 8.05241958 -5 11 C-6.32 10.34 -7.64 9.68 -9 9 C-8.06725891 7.87105124 -7.12859878 6.74699124 -6.1875 5.625 C-5.66542969 4.99851563 -5.14335937 4.37203125 -4.60546875 3.7265625 C-3 2 -3 2 0 0 Z " fill="#5A5A5A" transform="translate(366,143)"/>
<path d="M0 0 C0.99 0.99 1.98 1.98 3 3 C2.79846293 5.84875378 1.85624823 8.25099253 1 11 C0.34 10.01 -0.32 9.02 -1 8 C-1.99 8.495 -1.99 8.495 -3 9 C-2.01 6.03 -1.02 3.06 0 0 Z " fill="#646464" transform="translate(126,325)"/>
<path d="M0 0 C1.41377341 2.63904371 2.37240135 5.07120629 3 8 C1.68 8.33 0.36 8.66 -1 9 C-1.66 6.69 -2.32 4.38 -3 2 C-2.01 1.34 -1.02 0.68 0 0 Z " fill="#636363" transform="translate(96,308)"/>
<path d="M0 0 C0.99 0.33 1.98 0.66 3 1 C3 3.31 3 5.62 3 8 C1.68 8.33 0.36 8.66 -1 9 C-1.09765625 2.84765625 -1.09765625 2.84765625 -1 1 C-0.67 0.67 -0.34 0.34 0 0 Z " fill="#525252" transform="translate(322,114)"/>
<path d="M0 0 C0.66 0.33 1.32 0.66 2 1 C2 1.99 2 2.98 2 4 C0.25 5.75 0.25 5.75 -2 7 C-4.25 6.6875 -4.25 6.6875 -6 6 C-6 5.01 -6 4.02 -6 3 C-5.195625 2.690625 -4.39125 2.38125 -3.5625 2.0625 C-1.10919595 1.23664655 -1.10919595 1.23664655 0 0 Z " fill="#3E3E3E" transform="translate(397,209)"/>
<path d="M0 0 C0.99 0.99 1.98 1.98 3 3 C2.40138258 5.35171131 1.73075648 7.6859378 1 10 C0.01 10.495 0.01 10.495 -1 11 C-1.66 10.67 -2.32 10.34 -3 10 C-2.01 6.7 -1.02 3.4 0 0 Z " fill="#707070" transform="translate(102,199)"/>
<path d="M0 0 C5 2 5 2 10 4 C8 5 6 6 4 7 C2 5.75 2 5.75 0 4 C0 2.68 0 1.36 0 0 Z " fill="#535353" transform="translate(346,137)"/>
<path d="M0 0 C0.99 0.33 1.98 0.66 3 1 C2.67 3.31 2.34 5.62 2 8 C0.68 7.67 -0.64 7.34 -2 7 C-1.125 1.125 -1.125 1.125 0 0 Z " fill="#535353" transform="translate(132,360)"/>
<path d="M0 0 C1.32 0.33 2.64 0.66 4 1 C4.33 1.66 4.66 2.32 5 3 C3.948125 3.061875 3.948125 3.061875 2.875 3.125 C-1.27924027 4.38933399 -3.08632715 6.81528782 -6 10 C-6.66 9.67 -7.32 9.34 -8 9 C-5.36 6.03 -2.72 3.06 0 0 Z " fill="#666666" transform="translate(356,119)"/>
<path d="M0 0 C0.33 0 0.66 0 1 0 C1.36923077 7.50769231 1.36923077 7.50769231 -0.5 10 C-0.995 10.33 -1.49 10.66 -2 11 C-2.99 10.67 -3.98 10.34 -5 10 C-4.67 8.68 -4.34 7.36 -4 6 C-2.68 6 -1.36 6 0 6 C0 4.02 0 2.04 0 0 Z " fill="#656565" transform="translate(123,318)"/>
<path d="M0 0 C0.33 0 0.66 0 1 0 C1 2.64 1 5.28 1 8 C-0.98 8.99 -0.98 8.99 -3 10 C-4.10844919 6.67465243 -3.84454356 4.37817425 -3 1 C-2.34 2.32 -1.68 3.64 -1 5 C-0.67 3.35 -0.34 1.7 0 0 Z " fill="#808080" transform="translate(389,153)"/>
<path d="M0 0 C0.66 0.33 1.32 0.66 2 1 C2 3.31 2 5.62 2 8 C0.68 8 -0.64 8 -2 8 C-1.125 1.125 -1.125 1.125 0 0 Z " fill="#353535" transform="translate(231,409)"/>
<path d="M0 0 C0.90492188 0.02320313 1.80984375 0.04640625 2.7421875 0.0703125 C4.10730469 0.09738281 4.10730469 0.09738281 5.5 0.125 C6.19867188 0.14820313 6.89734375 0.17140625 7.6171875 0.1953125 C7.6171875 1.5153125 7.6171875 2.8353125 7.6171875 4.1953125 C5.3071875 4.1953125 2.9971875 4.1953125 0.6171875 4.1953125 C0.6171875 3.8653125 0.6171875 3.5353125 0.6171875 3.1953125 C-1.0328125 2.8653125 -2.6828125 2.5353125 -4.3828125 2.1953125 C-2.3828125 0.1953125 -2.3828125 0.1953125 0 0 Z " fill="#838383" transform="translate(276.3828125,398.8046875)"/>
<path d="M0 0 C2 0.75 2 0.75 4 3.75 C1.36 4.08 -1.28 4.41 -4 4.75 C-4 3.43 -4 2.11 -4 0.75 C-2 -0.25 -2 -0.25 0 0 Z " fill="#696969" transform="translate(91,290.25)"/>
<path d="M0 0 C-0.99 0.33 -1.98 0.66 -3 1 C-3.33 1.99 -3.66 2.98 -4 4 C-5.65 4 -7.3 4 -9 4 C-9.33 2.68 -9.66 1.36 -10 0 C-6.33694766 -0.74926071 -3.57644848 -1.2380014 0 0 Z " fill="#4C4C4C" transform="translate(408,216)"/>
<path d="M0 0 C0.25 2.75 0.25 2.75 0 6 C-2 8.375 -2 8.375 -4 10 C-3.88637738 8.5199159 -3.75877092 7.04089926 -3.625 5.5625 C-3.55539063 4.73878906 -3.48578125 3.91507813 -3.4140625 3.06640625 C-3.27742188 2.38449219 -3.14078125 1.70257813 -3 1 C-1 0 -1 0 0 0 Z " fill="#424242" transform="translate(107,193)"/>
<path d="M0 0 C0.66 0.33 1.32 0.66 2 1 C1.505 1.433125 1.01 1.86625 0.5 2.3125 C-1.33218192 3.99740483 -1.33218192 3.99740483 -1 7 C-2.32 7.33 -3.64 7.66 -5 8 C-5.66 7.01 -6.32 6.02 -7 5 C-4.69 3.35 -2.38 1.7 0 0 Z " fill="#626262" transform="translate(382,171)"/>
<path d="M0 0 C0.99 0.33 1.98 0.66 3 1 C2.6875 2.9375 2.6875 2.9375 2 5 C1.01 5.33 0.02 5.66 -1 6 C-1.66 6.99 -2.32 7.98 -3 9 C-2.25 2.25 -2.25 2.25 0 0 Z " fill="#737373" transform="translate(102,317)"/>
<path d="M0 0 C-0.25 2.375 -0.25 2.375 -1 5 C-3.0625 6.3125 -3.0625 6.3125 -5 7 C-5 6.01 -5 5.02 -5 4 C-5.66 3.67 -6.32 3.34 -7 3 C-3.375 0 -3.375 0 0 0 Z " fill="#565656" transform="translate(143,150)"/>
<path d="M0 0 C0.66 0.33 1.32 0.66 2 1 C2 2.65 2 4.3 2 6 C0.35 5.67 -1.3 5.34 -3 5 C-3.33 4.01 -3.66 3.02 -4 2 C-2.125 0.9375 -2.125 0.9375 0 0 Z " fill="#2C2C2C" transform="translate(198,404)"/>
<path d="M0 0 C1.98 0.66 3.96 1.32 6 2 C6 2.99 6 3.98 6 5 C5.01 5.495 5.01 5.495 4 6 C1.375 4.5625 1.375 4.5625 -1 3 C-0.67 2.01 -0.34 1.02 0 0 Z " fill="#5B5B5B" transform="translate(162,390)"/>
<path d="M0 0 C1.98 0.495 1.98 0.495 4 1 C3.67 3.64 3.34 6.28 3 9 C2.34 8.01 1.68 7.02 1 6 C0.01 6.495 0.01 6.495 -1 7 C-0.67 4.69 -0.34 2.38 0 0 Z " fill="#676767" transform="translate(189,381)"/>
<path d="M0 0 C-1.38877354 3.35620271 -2.91677965 5.07298728 -6 7 C-6.66 7 -7.32 7 -8 7 C-6.13932792 2.84926997 -4.83061881 0 0 0 Z " fill="#494949" transform="translate(131,354)"/>
<path d="M0 0 C1.093125 0.0825 2.18625 0.165 3.3125 0.25 C1.3325 1.24 1.3325 1.24 -0.6875 2.25 C0.6325 2.91 1.9525 3.57 3.3125 4.25 C0.0294902 5.8915049 -3.11295033 4.76888624 -6.6875 4.25 C-4.79150483 0.68106792 -4.16790733 0.28256999 0 0 Z " fill="#484848" transform="translate(365.6875,343.75)"/>
<path d="M0 0 C0.99 0.33 1.98 0.66 3 1 C2.34 3.31 1.68 5.62 1 8 C0.01 8 -0.98 8 -2 8 C-2.33 7.34 -2.66 6.68 -3 6 C-2.06553465 3.96855359 -1.06775224 1.96466413 0 0 Z " fill="#6A6A6A" transform="translate(111,178)"/>
<path d="M0 0 C1.98 0.99 1.98 0.99 4 2 C4 2.99 4 3.98 4 5 C4.66 5 5.32 5 6 5 C6 5.66 6 6.32 6 7 C4.68 6.67 3.36 6.34 2 6 C1.67 6.66 1.34 7.32 1 8 C0.67 5.36 0.34 2.72 0 0 Z " fill="#575757" transform="translate(288,97)"/>
<path d="M0 0 C3.3 0 6.6 0 10 0 C5.78492722 3.16130459 4.93928888 3.3367697 0 3 C0 2.01 0 1.02 0 0 Z " fill="#2F2F2F" transform="translate(252,403)"/>
<path d="M0 0 C0.6875 1.8125 0.6875 1.8125 1 4 C-0.4375 5.75 -0.4375 5.75 -2 7 C-2.33 6.34 -2.66 5.68 -3 5 C-3.66 6.32 -4.32 7.64 -5 9 C-5.36666667 3.5 -5.36666667 3.5 -3.625 1.125 C-2 0 -2 0 0 0 Z " fill="#666666" transform="translate(142,351)"/>
<path d="M0 0 C0.99 0.33 1.98 0.66 3 1 C2.34 1.66 1.68 2.32 1 3 C0.3574765 5.06874034 0.3574765 5.06874034 0 7 C-1.32 7 -2.64 7 -4 7 C-3.43628586 3.73045798 -2.50037734 2.17424117 0 0 Z " fill="#333333" transform="translate(371,148)"/>
<path d="M0 0 C1.32 0.66 2.64 1.32 4 2 C3.34 3.32 2.68 4.64 2 6 C-0.97 5.505 -0.97 5.505 -4 5 C-2.68 3.35 -1.36 1.7 0 0 Z " fill="#626262" transform="translate(373,359)"/>
<path d="M0 0 C0.99 0 1.98 0 3 0 C3 2.64 3 5.28 3 8 C2.01 8 1.02 8 0 8 C0 5.36 0 2.72 0 0 Z " fill="#323232" transform="translate(120,316)"/>
<path d="M0 0 C1.32 0.66 2.64 1.32 4 2 C4 2.66 4 3.32 4 4 C2.02 4.99 0.04 5.98 -2 7 C-1.125 1.125 -1.125 1.125 0 0 Z " fill="#666666" transform="translate(394,164)"/>
<path d="M0 0 C1.98 0.495 1.98 0.495 4 1 C3.67 3.31 3.34 5.62 3 8 C2.34 7.01 1.68 6.02 1 5 C0.34 5.66 -0.32 6.32 -1 7 C-0.67 4.69 -0.34 2.38 0 0 Z " fill="#6D6D6D" transform="translate(297,87)"/>
<path d="M0 0 C0.66 0.33 1.32 0.66 2 1 C1.67 2.32 1.34 3.64 1 5 C0.38125 5.144375 -0.2375 5.28875 -0.875 5.4375 C-3.03258322 5.93152225 -3.03258322 5.93152225 -5 7 C-3.75023244 3.34683329 -3.32901247 2.21934164 0 0 Z " fill="#686868" transform="translate(319,376)"/>
<path d="M0 0 C0.99 0.33 1.98 0.66 3 1 C2.67 2.98 2.34 4.96 2 7 C0.68 6.34 -0.64 5.68 -2 5 C-1.34 3.35 -0.68 1.7 0 0 Z " fill="#656565" transform="translate(204,387)"/>
<path d="M0 0 C0.66 0.33 1.32 0.66 2 1 C-0.97 3.97 -3.94 6.94 -7 10 C-7.33 9.01 -7.66 8.02 -8 7 C-5.36 4.69 -2.72 2.38 0 0 Z " fill="#797979" transform="translate(130,350)"/>
<path d="M0 0 C1.32 0.66 2.64 1.32 4 2 C3.67 3.65 3.34 5.3 3 7 C1.68 6.34 0.36 5.68 -1 5 C-0.67 3.35 -0.34 1.7 0 0 Z " fill="#606060" transform="translate(117,348)"/>
<path d="M0 0 C1.98 0 3.96 0 6 0 C5.67 1.32 5.34 2.64 5 4 C3.35 4 1.7 4 0 4 C0 2.68 0 1.36 0 0 Z " fill="#464646" transform="translate(84,276)"/>
<path d="M0 0 C0.66 0.33 1.32 0.66 2 1 C1.67 1.66 1.34 2.32 1 3 C1.66 3.33 2.32 3.66 3 4 C0 6 0 6 -2 6 C-2.99 6.495 -2.99 6.495 -4 7 C-2.92598892 4.08482708 -2.22189824 2.22189824 0 0 Z " fill="#6D6D6D" transform="translate(125,135)"/>
<path d="M0 0 C0.99 0.66 1.98 1.32 3 2 C3 2.66 3 3.32 3 4 C0 5 0 5 -3 5 C-3.66 4.67 -4.32 4.34 -5 4 C-3.35 2.68 -1.7 1.36 0 0 Z " fill="#6C6C6C" transform="translate(139,343)"/>
<path d="M0 0 C0 0.33 0 0.66 0 1 C-0.94875 1.28875 -1.8975 1.5775 -2.875 1.875 C-6.29061694 3.1046221 -7.44299081 3.94787154 -9.125 7.125 C-9.41375 7.74375 -9.7025 8.3625 -10 9 C-9.6875 5.625 -9.6875 5.625 -9 2 C-5.5647952 -0.29013653 -4.014669 -0.17842973 0 0 Z " fill="#838383" transform="translate(118,311)"/>
<path d="M0 0 C0 0.99 0 1.98 0 3 C-1.65 3.33 -3.3 3.66 -5 4 C-5.33 2.68 -5.66 1.36 -6 0 C-3 -1 -3 -1 0 0 Z " fill="#666666" transform="translate(115,299)"/>
<path d="M0 0 C-1.98 0.99 -1.98 0.99 -4 2 C-4 2.99 -4 3.98 -4 5 C-5.98 5.99 -5.98 5.99 -8 7 C-8.1875 4.625 -8.1875 4.625 -8 2 C-4.77208445 -0.1519437 -3.71599191 -0.20086443 0 0 Z " fill="#717171" transform="translate(152,116)"/>
<path d="M0 0 C0.33 0 0.66 0 1 0 C1 2.31 1 4.62 1 7 C-0.32 7 -1.64 7 -3 7 C-2.38722388 4.03824877 -1.74627478 2.61941217 0 0 Z " fill="#313131" transform="translate(280,100)"/>
<path d="M0 0 C2.6875 0.3125 2.6875 0.3125 5 1 C4.01 1.495 4.01 1.495 3 2 C3.33 2.99 3.66 3.98 4 5 C1.69 4.34 -0.62 3.68 -3 3 C-1.8125 1.4375 -1.8125 1.4375 0 0 Z " fill="#666666" transform="translate(191,404)"/>
<path d="M0 0 C0.99 0.66 1.98 1.32 3 2 C2.67 3.32 2.34 4.64 2 6 C-2.875 4.25 -2.875 4.25 -4 2 C-2.68 2.33 -1.36 2.66 0 3 C0 2.01 0 1.02 0 0 Z " fill="#777777" transform="translate(384,346)"/>
<path d="M0 0 C0.66 0.33 1.32 0.66 2 1 C1.34 1.66 0.68 2.32 0 3 C0 3.99 0 4.98 0 6 C-0.99 6.495 -0.99 6.495 -2 7 C-2 6.34 -2 5.68 -2 5 C-2.66 5 -3.32 5 -4 5 C-2.25 1.125 -2.25 1.125 0 0 Z " fill="#6B6B6B" transform="translate(360,344)"/>
<path d="M0 0 C0.33 0.66 0.66 1.32 1 2 C1.99 1.67 2.98 1.34 4 1 C3.67 2.98 3.34 4.96 3 7 C2.34 6.01 1.68 5.02 1 4 C0.67 5.65 0.34 7.3 0 9 C-0.33 9 -0.66 9 -1 9 C-1.125 2.25 -1.125 2.25 0 0 Z " fill="#858585" transform="translate(381,311)"/>
<path d="M0 0 C2.475 0.495 2.475 0.495 5 1 C4.34 1.66 3.68 2.32 3 3 C2.54188325 4.97235333 2.54188325 4.97235333 2.375 7.125 C2.25125 8.40375 2.1275 9.6825 2 11 C1.67 11 1.34 11 1 11 C0.67 7.37 0.34 3.74 0 0 Z " fill="#7D7D7D" transform="translate(392,216)"/>
<path d="M0 0 C0.33 0.66 0.66 1.32 1 2 C2.32 1.67 3.64 1.34 5 1 C5.33 2.32 5.66 3.64 6 5 C4.68 5.33 3.36 5.66 2 6 C0 3 0 3 0 0 Z " fill="#6A6A6A" transform="translate(172,112)"/>
<path d="M0 0 C0.33 1.98 0.66 3.96 1 6 C0.67 5.01 0.34 4.02 0 3 C-0.66 3 -1.32 3 -2 3 C-2.33 4.32 -2.66 5.64 -3 7 C-3.33 5.02 -3.66 3.04 -4 1 C-2 0 -2 0 0 0 Z " fill="#818181" transform="translate(204,87)"/>
<path d="M0 0 C0.33 0.66 0.66 1.32 1 2 C3.64 1.67 6.28 1.34 9 1 C8.34 1.66 7.68 2.32 7 3 C7.66 3.66 8.32 4.32 9 5 C7.68 5 6.36 5 5 5 C5 4.34 5 3.68 5 3 C3.35 3 1.7 3 0 3 C0 2.01 0 1.02 0 0 Z " fill="#818181" transform="translate(208,104)"/>
<path d="M0 0 C2.0625 0.4375 2.0625 0.4375 4 1 C3.01 2.485 3.01 2.485 2 4 C1.34 4 0.68 4 0 4 C-0.99 4.66 -1.98 5.32 -3 6 C-1.125 1.125 -1.125 1.125 0 0 Z " fill="#797979" transform="translate(121,156)"/>
<path d="" fill="#FFFFFF" transform="translate(0,0)"/>
<path d="" fill="#FFFFFF" transform="translate(0,0)"/>
<path d="" fill="#FFFFFF" transform="translate(0,0)"/>
<path d="" fill="#FFFFFF" transform="translate(0,0)"/>
<path d="" fill="#FFFFFF" transform="translate(0,0)"/>
<path d="" fill="#FFFFFF" transform="translate(0,0)"/>
<path d="" fill="#FFFFFF" transform="translate(0,0)"/>
<path d="" fill="#FFFFFF" transform="translate(0,0)"/>
<path d="" fill="#FFFFFF" transform="translate(0,0)"/>
<path d="" fill="#FFFFFF" transform="translate(0,0)"/>
<path d="" fill="#FFFFFF" transform="translate(0,0)"/>
<path d="" fill="#FFFFFF" transform="translate(0,0)"/>
<path d="" fill="#FFFFFF" transform="translate(0,0)"/>
<path d="" fill="#FFFFFF" transform="translate(0,0)"/>
<path d="" fill="#FFFFFF" transform="translate(0,0)"/>
<path d="" fill="#FFFFFF" transform="translate(0,0)"/>
<path d="" fill="#FFFFFF" transform="translate(0,0)"/>
<path d="" fill="#FFFFFF" transform="translate(0,0)"/>
<path d="" fill="#FFFFFF" transform="translate(0,0)"/>
<path d="" fill="#FFFFFF" transform="translate(0,0)"/>
<path d="" fill="#FFFFFF" transform="translate(0,0)"/>
<path d="" fill="#FFFFFF" transform="translate(0,0)"/>
<path d="" fill="#FFFFFF" transform="translate(0,0)"/>
<path d="" fill="#FFFFFF" transform="translate(0,0)"/>
<path d="" fill="#FFFFFF" transform="translate(0,0)"/>
<path d="" fill="#FFFFFF" transform="translate(0,0)"/>
<path d="" fill="#FFFFFF" transform="translate(0,0)"/>
<path d="" fill="#FFFFFF" transform="translate(0,0)"/>
<path d="" fill="#FFFFFF" transform="translate(0,0)"/>
<path d="" fill="#FFFFFF" transform="translate(0,0)"/>
<path d="" fill="#FFFFFF" transform="translate(0,0)"/>
<path d="" fill="#FFFFFF" transform="translate(0,0)"/>
<path d="" fill="#FFFFFF" transform="translate(0,0)"/>
<path d="" fill="#FFFFFF" transform="translate(0,0)"/>
<path d="" fill="#FFFFFF" transform="translate(0,0)"/>
<path d="" fill="#FFFFFF" transform="translate(0,0)"/>
<path d="" fill="#FFFFFF" transform="translate(0,0)"/>
<path d="" fill="#FFFFFF" transform="translate(0,0)"/>
<path d="" fill="#FFFFFF" transform="translate(0,0)"/>
<path d="" fill="#FFFFFF" transform="translate(0,0)"/>
<path d="" fill="#FFFFFF" transform="translate(0,0)"/>
<path d="" fill="#FFFFFF" transform="translate(0,0)"/>
<path d="" fill="#FFFFFF" transform="translate(0,0)"/>
<path d="" fill="#FFFFFF" transform="translate(0,0)"/>
<path d="" fill="#FFFFFF" transform="translate(0,0)"/>
<path d="" fill="#FFFFFF" transform="translate(0,0)"/>
<path d="" fill="#FFFFFF" transform="translate(0,0)"/>
<path d="" fill="#FFFFFF" transform="translate(0,0)"/>
<path d="" fill="#FFFFFF" transform="translate(0,0)"/>
<path d="" fill="#FFFFFF" transform="translate(0,0)"/>
<path d="" fill="#FFFFFF" transform="translate(0,0)"/>
<path d="" fill="#FFFFFF" transform="translate(0,0)"/>
<path d="" fill="#FFFFFF" transform="translate(0,0)"/>
<path d="" fill="#FFFFFF" transform="translate(0,0)"/>
<path d="" fill="#FFFFFF" transform="translate(0,0)"/>
<path d="" fill="#FFFFFF" transform="translate(0,0)"/>
<path d="" fill="#FFFFFF" transform="translate(0,0)"/>
<path d="" fill="#FFFFFF" transform="translate(0,0)"/>
<path d="" fill="#FFFFFF" transform="translate(0,0)"/>
<path d="" fill="#FFFFFF" transform="translate(0,0)"/>
<path d="" fill="#FFFFFF" transform="translate(0,0)"/>
<path d="" fill="#FFFFFF" transform="translate(0,0)"/>
<path d="" fill="#FFFFFF" transform="translate(0,0)"/>
<path d="" fill="#FFFFFF" transform="translate(0,0)"/>
<path d="" fill="#FFFFFF" transform="translate(0,0)"/>
<path d="" fill="#FFFFFF" transform="translate(0,0)"/>
<path d="" fill="#FFFFFF" transform="translate(0,0)"/>
<path d="" fill="#FFFFFF" transform="translate(0,0)"/>
<path d="" fill="#FFFFFF" transform="translate(0,0)"/>
<path d="" fill="#FFFFFF" transform="translate(0,0)"/>
<path d="" fill="#FFFFFF" transform="translate(0,0)"/>
<path d="" fill="#FFFFFF" transform="translate(0,0)"/>
<path d="" fill="#FFFFFF" transform="translate(0,0)"/>
<path d="" fill="#FFFFFF" transform="translate(0,0)"/>
<path d="" fill="#FFFFFF" transform="translate(0,0)"/>
<path d="" fill="#FFFFFF" transform="translate(0,0)"/>
<path d="" fill="#FFFFFF" transform="translate(0,0)"/>
<path d="" fill="#FFFFFF" transform="translate(0,0)"/>
<path d="" fill="#FFFFFF" transform="translate(0,0)"/>
<path d="" fill="#FFFFFF" transform="translate(0,0)"/>
<path d="" fill="#FFFFFF" transform="translate(0,0)"/>
<path d="" fill="#FFFFFF" transform="translate(0,0)"/>
<path d="" fill="#FFFFFF" transform="translate(0,0)"/>
</svg>
